<?xml version="1.0" encoding="UTF-8"?>
<svg id="Layer_1" xmlns="http://www.w3.org/2000/svg" version="1.1" viewBox="0 0 571.2 181.7">
  <!-- Generator: Adobe Illustrator 29.3.0, SVG Export Plug-In . SVG Version: 2.1.0 Build 146)  -->
  <defs>
    <style>
      .st0 {
        fill: #2a0d04;
      }
    </style>
  </defs>
  <path class="st0" d="M39.2,82v-7.7h-7.7v-7.7h-7.7v-23.1h7.7v-7.7h7.7v-7.7h61.7v7.7h-15.4v7.7h7.7v23.1h-7.7v7.7h-7.7v7.7h-38.6,0ZM93.2,143.7v-15.4h-7.7v-7.7h-46.3v-7.7h-7.7v-7.7h-7.7v-15.4h7.7v-7.7h7.7v15.4h7.7v7.7h46.3v7.7h7.7v7.7h7.7v15.4h-7.7v7.7h-7.7ZM39.2,159v-7.7h-7.7v-7.7h-7.7v-15.4h7.7v-7.7h7.7v23.2h7.7v7.7h38.6v7.7h-46.3,0ZM70.1,74.2v-7.7h7.7v-23.1h-7.7v-7.7h-23.2v7.7h-7.7v23.1h7.7v7.7h23.2ZM85.5,151.3v-7.7h7.7v7.7h-7.7Z"/>
  <path class="st0" d="M131.8,112.7v-7.7h-7.7v-7.7h-7.7v-15.4h-7.7v-23.1h7.7v-15.4h7.7v7.7h46.3v-7.7h-7.7v-7.7h-30.8v-7.7h38.6v7.7h7.7v7.7h7.7v15.4h-61.7v23.1h7.7v15.4h7.7v7.7h30.8v7.7h-38.6ZM124.1,43.3v-7.7h7.7v7.7h-7.7ZM170.4,105.2v-7.7h7.7v7.7h-7.7ZM178.1,97.3v-7.7h7.7v7.7h-7.7Z"/>
  <path class="st0" d="M197.4,112.7v-7.7h7.7v-61.7h-7.7v-7.7h7.7v-7.7h7.7v-7.7h7.7v15.4h7.7v7.7h-7.7v61.7h7.7v7.7h-30.8ZM255.2,112.7v-7.7h7.7v-61.7h-7.7v-7.7h-27v-7.7h34.7v7.7h7.7v7.7h7.7v61.7h7.7v7.7h-30.9,0Z"/>
  <path class="st0" d="M305.4,112.7v-7.7h-7.7v-19.3h7.7v11.6h7.7v7.7h23.2v-7.7h7.7v-15.4h-7.7v-7.7h-15.4v-7.7h-15.4v-7.7h-7.7v-15.4h7.7v-7.7h7.7v15.4h7.7v7.7h15.4v7.7h15.4v7.7h7.7v23.2h-7.7v7.7h-7.7v7.7h-38.6ZM347.9,51v-7.7h-7.7v-7.7h-27v-7.7h34.7v7.7h7.7v15.4h-7.7Z"/>
  <path class="st0" d="M398,128.2v-34.7h-7.7v-19.3h-7.7v-19.3h-7.7v-19.3h-11.5v-7.7h38.5v7.7h-11.6v19.3h7.7v19.3h7.7v19.3h7.7v19.3h-7.7v15.4h-7.7ZM367.2,159v-15.4h23.1v7.7h-7.7v7.7h-15.4ZM390.3,143.7v-15.4h7.7v15.4h-7.7ZM413.4,93.5v-19.3h7.7v19.3h-7.7ZM428.8,55v-19.3h-11.5v-7.7h30.8v7.7h-11.6v19.3h-7.7ZM421.2,74.2v-19.3h7.7v19.3h-7.7Z"/>
  <path class="st0" d="M455.9,112.7v-7.7h7.7v-61.7h-7.7v-7.7h7.7v-7.7h7.7v-7.7h7.7v15.4h7.7v7.7h-7.7v61.7h7.7v7.7h-30.8ZM513.7,112.7v-7.7h7.7v-61.7h-7.7v-7.7h-27v-7.7h34.7v7.7h7.7v7.7h7.7v61.7h7.7v7.7h-30.9,0Z"/>
</svg>