<?xml version="1.0" encoding="UTF-8"?>
<svg xmlns="http://www.w3.org/2000/svg" xmlns:xlink="http://www.w3.org/1999/xlink" version="1.2" >
<font id="Aux Mono Regular">
<font-face  font-family="Aux Mono" units-per-em="1000" ascent="800" descent="-200" font-style="normal" font-weight="400" font-stretch="normal" cap-height="700" x-height="500" underline-position="-100" underline-thickness="50" />
<missing-glyph  horiz-adv-x="700" d="M125 700 L575 700 L575 0 L125 0 L125 700 Z " />
<glyph glyph-name="null" d="" />
<glyph glyph-name="uni000D" unicode="&#xd;" horiz-adv-x="250" d="" />
<glyph glyph-name="space" unicode="&#x20;" horiz-adv-x="700" d="" />
<glyph glyph-name="A" unicode="A" horiz-adv-x="700" d="M125 594 L160 629 L195 629 L195 665 L231 700 L468 700 L504 665 L504 629 L539 629 L575 594 L575 0 L480 0 L480 289 L220 289 L220 0 L125 0 L125 594 Z M220 384 L480 384 L480 605 L220 605 L220 384 Z " />
<glyph glyph-name="B" unicode="B" horiz-adv-x="700" d="M125 700 L468 700 L504 665 L504 629 L539 629 L575 594 L575 423 L539 387 L504 387 L504 341 L539 341 L575 305 L575 106 L539 71 L504 71 L504 36 L468 0 L125 0 L125 700 Z M220 317 L220 95 L480 95 L480 317 L220 317 Z M220 412 L480 412 L480 605 L220 605 L220 412 Z " />
<glyph glyph-name="C" unicode="C" horiz-adv-x="700" d="M125 594 L160 629 L195 629 L195 665 L231 700 L468 700 L504 665 L504 629 L575 629 L575 490 L480 490 L480 605 L220 605 L220 95 L480 95 L480 210 L575 210 L575 71 L504 71 L504 36 L468 0 L231 0 L195 36 L195 71 L160 71 L125 106 L125 594 Z " />
<glyph glyph-name="D" unicode="D" horiz-adv-x="700" d="M125 0 L125 700 L468 700 L504 665 L504 629 L539 629 L575 594 L575 106 L539 71 L504 71 L504 36 L468 0 L125 0 Z M220 605 L220 95 L480 95 L480 605 L220 605 Z " />
<glyph glyph-name="E" unicode="E" horiz-adv-x="700" d="M125 700 L575 700 L575 605 L220 605 L220 412 L527 412 L527 317 L220 317 L220 95 L575 95 L575 0 L125 0 L125 700 Z " />
<glyph glyph-name="F" unicode="F" horiz-adv-x="700" d="M595 701 L595 606 L240 606 L240 412 L548 412 L548 317 L240 317 L240 0 L145 0 L145 701 L595 701 Z " />
<glyph glyph-name="G" unicode="G" horiz-adv-x="700" d="M125 594 L160 629 L195 629 L195 665 L231 700 L468 700 L504 665 L504 629 L575 629 L575 490 L480 490 L480 605 L220 605 L220 95 L480 95 L480 289 L350 289 L350 384 L575 384 L575 106 L539 71 L504 71 L504 36 L468 0 L231 0 L195 36 L195 71 L160 71 L125 106 L125 594 Z " />
<glyph glyph-name="H" unicode="H" horiz-adv-x="700" d="M220 700 L220 412 L480 412 L480 700 L575 700 L575 0 L480 0 L480 317 L220 317 L220 0 L125 0 L125 700 L220 700 Z " />
<glyph glyph-name="I" unicode="I" horiz-adv-x="700" d="M200 605 L200 700 L500 700 L500 605 L397 605 L397 95 L500 95 L500 0 L200 0 L200 95 L302 95 L302 605 L200 605 Z " />
<glyph glyph-name="J" unicode="J" horiz-adv-x="700" d="M125 71 L125 288 L220 288 L220 95 L480 95 L480 605 L220 605 L220 700 L575 700 L575 106 L539 71 L504 71 L504 36 L469 0 L231 0 L196 36 L196 71 L125 71 Z " />
<glyph glyph-name="K" unicode="K" horiz-adv-x="700" d="M125 700 L220 700 L220 412 L324 412 L324 462 L480 617 L480 700 L575 700 L575 578 L384 387 L349 387 L349 341 L384 341 L575 150 L575 0 L480 0 L480 111 L324 266 L324 317 L220 317 L220 0 L125 0 L125 700 Z " />
<glyph glyph-name="L" unicode="L" horiz-adv-x="700" d="M240 95 L595 95 L595 0 L145 0 L145 700 L240 700 L240 95 Z " />
<glyph glyph-name="M" unicode="M" horiz-adv-x="700" d="M100 0 L100 700 L234 700 L326 608 L326 573 L373 573 L373 608 L465 700 L600 700 L600 0 L505 0 L505 605 L448 548 L397 548 L397 317 L302 317 L302 548 L252 548 L195 605 L195 0 L100 0 Z " />
<glyph glyph-name="N" unicode="N" horiz-adv-x="700" d="M125 700 L238 700 L480 458 L480 700 L575 700 L575 0 L480 0 L480 375 L429 375 L220 584 L220 0 L125 0 L125 700 Z " />
<glyph glyph-name="O" unicode="O" horiz-adv-x="700" d="M125 106 L125 594 L160 629 L195 629 L195 665 L231 700 L468 700 L504 665 L504 629 L539 629 L575 594 L575 106 L539 71 L504 71 L504 36 L468 0 L231 0 L195 36 L195 71 L160 71 L125 106 Z M480 95 L480 605 L220 605 L220 95 L480 95 Z " />
<glyph glyph-name="P" unicode="P" horiz-adv-x="700" d="M125 701 L469 701 L504 665 L504 630 L539 630 L575 594 L575 395 L539 360 L504 360 L504 325 L469 289 L220 289 L220 0 L125 0 L125 701 Z M220 384 L480 384 L480 606 L220 606 L220 384 Z " />
<glyph glyph-name="Q" unicode="Q" horiz-adv-x="700" d="M160 629 L195 629 L195 665 L231 700 L468 700 L504 665 L504 629 L539 629 L575 594 L575 106 L539 71 L504 71 L504 36 L468 0 L397 0 L397 -95 L302 -95 L302 0 L231 0 L195 36 L195 71 L160 71 L125 106 L125 594 L160 629 Z M220 605 L220 95 L480 95 L480 605 L220 605 Z " />
<glyph glyph-name="R" unicode="R" horiz-adv-x="700" d="M125 700 L468 700 L504 665 L504 629 L539 629 L575 594 L575 423 L539 387 L504 387 L504 341 L539 341 L575 305 L575 0 L480 0 L480 317 L220 317 L220 0 L125 0 L125 700 Z M220 605 L220 412 L480 412 L480 605 L220 605 Z " />
<glyph glyph-name="S" unicode="S" horiz-adv-x="700" d="M125 210 L220 210 L220 95 L480 95 L480 317 L231 317 L195 352 L195 387 L160 387 L125 423 L125 594 L160 629 L195 629 L195 665 L231 700 L468 700 L504 665 L504 629 L575 629 L575 490 L480 490 L480 605 L220 605 L220 412 L468 412 L504 376 L504 341 L539 341 L575 305 L575 106 L539 71 L504 71 L504 36 L468 0 L231 0 L195 36 L195 71 L125 71 L125 210 Z " />
<glyph glyph-name="T" unicode="T" horiz-adv-x="700" d="M125 700 L575 700 L575 605 L397 605 L397 0 L302 0 L302 605 L125 605 L125 700 Z " />
<glyph glyph-name="U" unicode="U" horiz-adv-x="700" d="M220 700 L220 95 L480 95 L480 700 L575 700 L575 106 L539 71 L504 71 L504 36 L468 0 L231 0 L195 36 L195 71 L160 71 L125 106 L125 700 L220 700 Z " />
<glyph glyph-name="V" unicode="V" horiz-adv-x="700" d="M125 700 L220 700 L220 229 L303 146 L303 95 L397 95 L397 146 L480 229 L480 700 L575 700 L575 189 L456 71 L421 71 L421 0 L278 0 L278 71 L243 71 L125 189 L125 700 Z " />
<glyph glyph-name="W" unicode="W" horiz-adv-x="700" d="M100 0 L100 700 L195 700 L195 232 L252 289 L302 289 L302 412 L397 412 L397 289 L448 289 L505 232 L505 700 L600 700 L600 0 L505 0 L505 97 L373 229 L373 264 L326 264 L326 229 L195 97 L195 0 L100 0 Z " />
<glyph glyph-name="X" unicode="X" horiz-adv-x="700" d="M125 0 L125 199 L267 341 L302 341 L302 387 L267 387 L125 530 L125 700 L220 700 L220 569 L326 462 L326 412 L373 412 L373 462 L480 569 L480 700 L575 700 L575 530 L432 387 L397 387 L397 341 L432 341 L575 199 L575 0 L480 0 L480 159 L373 266 L373 317 L326 317 L326 266 L220 159 L220 0 L125 0 Z " />
<glyph glyph-name="Y" unicode="Y" horiz-adv-x="700" d="M125 700 L220 700 L220 569 L326 462 L326 412 L373 412 L373 462 L480 569 L480 700 L575 700 L575 530 L432 387 L397 387 L397 0 L302 0 L302 387 L267 387 L125 530 L125 700 Z " />
<glyph glyph-name="Z" unicode="Z" horiz-adv-x="700" d="M125 0 L125 215 L480 570 L480 605 L125 605 L125 700 L575 700 L575 531 L220 176 L220 95 L575 95 L575 0 L125 0 Z " />
<glyph glyph-name="a" unicode="a" horiz-adv-x="700" d="M110 191 L145 226 L180 226 L180 262 L216 297 L465 297 L465 405 L205 405 L205 334 L110 334 L110 429 L180 429 L180 464 L216 500 L453 500 L489 464 L489 429 L524 429 L560 393 L560 95 L630 95 L630 0 L535 0 L535 70 L489 70 L489 35 L453 0 L216 0 L180 35 L180 70 L145 70 L110 106 L110 191 Z M205 95 L465 95 L465 202 L205 202 L205 95 Z " />
<glyph glyph-name="b" unicode="b" horiz-adv-x="700" d="M125 700 L220 700 L220 500 L468 500 L504 465 L504 429 L539 429 L575 394 L575 106 L539 71 L504 71 L504 36 L468 0 L231 0 L195 36 L195 71 L125 71 L125 700 Z M220 405 L220 95 L480 95 L480 405 L220 405 Z " />
<glyph glyph-name="c" unicode="c" horiz-adv-x="700" d="M125 394 L160 429 L195 429 L195 465 L231 500 L468 500 L504 465 L504 429 L575 429 L575 334 L480 334 L480 405 L220 405 L220 95 L480 95 L480 166 L575 166 L575 71 L504 71 L504 36 L468 0 L231 0 L195 36 L195 71 L160 71 L125 106 L125 394 Z " />
<glyph glyph-name="d" unicode="d" horiz-adv-x="700" d="M160 429 L195 429 L195 465 L231 500 L480 500 L480 700 L575 700 L575 71 L504 71 L504 36 L468 0 L231 0 L195 36 L195 71 L160 71 L125 106 L125 394 L160 429 Z M220 405 L220 95 L480 95 L480 405 L220 405 Z " />
<glyph glyph-name="e" unicode="e" horiz-adv-x="700" d="M160 429 L195 429 L195 465 L231 500 L468 500 L504 465 L504 429 L539 429 L575 394 L575 309 L539 273 L504 273 L504 238 L468 203 L220 203 L220 95 L480 95 L480 166 L575 166 L575 71 L504 71 L504 36 L468 0 L231 0 L195 36 L195 71 L160 71 L125 106 L125 394 L160 429 Z M220 298 L480 298 L480 405 L220 405 L220 298 Z " />
<glyph glyph-name="f" unicode="f" horiz-adv-x="700" d="M255 500 L255 594 L290 629 L325 629 L325 700 L575 700 L575 605 L350 605 L350 500 L575 500 L575 405 L350 405 L350 0 L255 0 L255 405 L125 405 L125 500 L255 500 Z " />
<glyph glyph-name="g" unicode="g" horiz-adv-x="700" d="M114 273 L114 394 L150 430 L185 430 L185 465 L220 500 L408 500 L443 465 L443 430 L490 430 L490 500 L585 500 L585 405 L514 405 L514 273 L478 237 L443 237 L443 202 L408 166 L209 166 L209 95 L458 95 L493 60 L493 25 L528 25 L564 -11 L564 -94 L528 -129 L493 -129 L493 -164 L458 -200 L220 -200 L185 -164 L185 -129 L150 -129 L114 -94 L114 -11 L150 25 L185 25 L185 71 L150 71 L114 106 L114 155 L150 191 L185 191 L185 237 L150 237 L114 273 Z M419 261 L419 405 L209 405 L209 261 L419 261 Z M209 -105 L469 -105 L469 0 L209 0 L209 -105 Z " />
<glyph glyph-name="h" unicode="h" horiz-adv-x="700" d="M220 700 L220 500 L468 500 L504 465 L504 429 L539 429 L575 394 L575 0 L480 0 L480 405 L220 405 L220 0 L125 0 L125 700 L220 700 Z " />
<glyph glyph-name="i" unicode="i" horiz-adv-x="700" d="M302 95 L302 405 L200 405 L200 500 L397 500 L397 95 L500 95 L500 0 L200 0 L200 95 L302 95 Z M405 590 L295 590 L295 710 L405 710 L405 590 Z " />
<glyph glyph-name="j" unicode="j" horiz-adv-x="700" d="M500 500 L500 -94 L464 -129 L429 -129 L429 -200 L200 -200 L200 -105 L405 -105 L405 405 L200 405 L200 500 L500 500 Z M390 710 L500 710 L500 590 L390 590 L390 710 Z " />
<glyph glyph-name="k" unicode="k" horiz-adv-x="700" d="M220 700 L220 207 L289 207 L289 258 L480 449 L480 500 L575 500 L575 410 L415 250 L575 91 L575 0 L480 0 L480 51 L348 183 L313 183 L313 112 L220 112 L220 0 L125 0 L125 700 L220 700 Z " />
<glyph glyph-name="l" unicode="l" horiz-adv-x="700" d="M397 700 L397 95 L500 95 L500 0 L200 0 L200 95 L303 95 L303 605 L200 605 L200 700 L397 700 Z " />
<glyph glyph-name="m" unicode="m" horiz-adv-x="700" d="M75 0 L75 429 L145 429 L145 465 L181 500 L291 500 L326 465 L326 429 L373 429 L373 465 L408 500 L518 500 L554 465 L554 429 L589 429 L625 394 L625 0 L530 0 L530 405 L397 405 L397 0 L302 0 L302 405 L170 405 L170 0 L75 0 Z " />
<glyph glyph-name="n" unicode="n" horiz-adv-x="700" d="M195 429 L195 465 L231 500 L468 500 L504 465 L504 429 L539 429 L575 394 L575 0 L480 0 L480 405 L220 405 L220 0 L125 0 L125 429 L195 429 Z " />
<glyph glyph-name="o" unicode="o" horiz-adv-x="700" d="M160 429 L195 429 L195 465 L231 500 L468 500 L504 465 L504 429 L539 429 L575 394 L575 106 L539 71 L504 71 L504 36 L468 0 L231 0 L195 36 L195 71 L160 71 L125 106 L125 394 L160 429 Z M220 405 L220 95 L480 95 L480 405 L220 405 Z " />
<glyph glyph-name="p" unicode="p" horiz-adv-x="700" d="M125 -200 L125 429 L195 429 L195 465 L231 500 L468 500 L504 465 L504 429 L539 429 L575 394 L575 106 L539 71 L504 71 L504 36 L468 0 L220 0 L220 -200 L125 -200 Z M220 95 L480 95 L480 405 L220 405 L220 95 Z " />
<glyph glyph-name="q" unicode="q" horiz-adv-x="700" d="M125 394 L160 429 L195 429 L195 465 L231 500 L468 500 L504 465 L504 429 L575 429 L575 -200 L480 -200 L480 0 L231 0 L195 36 L195 71 L160 71 L125 106 L125 394 Z M220 95 L480 95 L480 405 L220 405 L220 95 Z " />
<glyph glyph-name="r" unicode="r" horiz-adv-x="700" d="M140 0 L140 429 L210 429 L210 464 L246 500 L454 500 L490 464 L490 429 L560 429 L560 334 L465 334 L465 405 L235 405 L235 0 L140 0 Z " />
<glyph glyph-name="s" unicode="s" horiz-adv-x="700" d="M125 166 L220 166 L220 95 L480 95 L480 203 L231 203 L195 238 L195 273 L160 273 L125 309 L125 394 L160 429 L195 429 L195 465 L231 500 L468 500 L504 465 L504 429 L575 429 L575 334 L480 334 L480 405 L220 405 L220 298 L468 298 L504 262 L504 227 L539 227 L575 191 L575 106 L539 71 L504 71 L504 36 L468 0 L231 0 L195 36 L195 71 L125 71 L125 166 Z " />
<glyph glyph-name="t" unicode="t" horiz-adv-x="700" d="M125 500 L255 500 L255 700 L350 700 L350 500 L575 500 L575 405 L350 405 L350 95 L575 95 L575 0 L325 0 L325 71 L291 71 L255 106 L255 405 L125 405 L125 500 Z " />
<glyph glyph-name="u" unicode="u" horiz-adv-x="700" d="M125 106 L125 500 L220 500 L220 95 L480 95 L480 500 L575 500 L575 71 L504 71 L504 36 L468 0 L231 0 L195 36 L195 71 L160 71 L125 106 Z " />
<glyph glyph-name="v" unicode="v" horiz-adv-x="700" d="M125 500 L220 500 L220 229 L303 146 L303 95 L397 95 L397 146 L480 229 L480 500 L575 500 L575 189 L456 71 L421 71 L421 0 L278 0 L278 71 L243 71 L125 189 L125 500 Z " />
<glyph glyph-name="w" unicode="w" horiz-adv-x="700" d="M75 500 L170 500 L170 184 L208 146 L208 95 L227 95 L252 119 L302 119 L302 298 L397 298 L397 119 L448 119 L472 95 L491 95 L491 146 L530 184 L530 500 L625 500 L625 145 L551 71 L516 71 L516 36 L480 0 L432 0 L373 60 L373 95 L326 95 L326 60 L267 0 L219 0 L183 36 L183 71 L148 71 L75 145 L75 500 Z " />
<glyph glyph-name="x" unicode="x" horiz-adv-x="700" d="M125 0 L125 108 L243 227 L278 227 L278 273 L243 273 L125 392 L125 500 L220 500 L220 431 L303 348 L303 298 L397 298 L397 348 L480 431 L480 500 L575 500 L575 392 L456 273 L421 273 L421 227 L456 227 L575 108 L575 0 L480 0 L480 69 L397 152 L397 203 L303 203 L303 152 L220 69 L220 0 L125 0 Z " />
<glyph glyph-name="y" unicode="y" horiz-adv-x="700" d="M125 -129 L125 -34 L220 -34 L220 -105 L480 -105 L480 0 L231 0 L195 36 L195 71 L160 71 L125 106 L125 500 L220 500 L220 95 L480 95 L480 500 L575 500 L575 -129 L504 -129 L504 -164 L468 -200 L231 -200 L195 -164 L195 -129 L125 -129 Z " />
<glyph glyph-name="z" unicode="z" horiz-adv-x="700" d="M125 85 L267 227 L302 227 L302 298 L373 298 L373 348 L430 405 L125 405 L125 500 L575 500 L575 416 L432 273 L397 273 L397 203 L326 203 L326 152 L269 95 L575 95 L575 0 L125 0 L125 85 Z " />
<glyph glyph-name="zero" unicode="0" horiz-adv-x="700" d="M125 106 L125 594 L160 629 L195 629 L195 665 L231 700 L468 700 L504 665 L504 629 L539 629 L575 594 L575 106 L539 71 L504 71 L504 36 L468 0 L231 0 L195 36 L195 71 L160 71 L125 106 Z M220 159 L220 95 L480 95 L480 435 L432 387 L397 387 L397 317 L326 317 L326 266 L220 159 Z M267 341 L302 341 L302 412 L373 412 L373 462 L480 569 L480 605 L220 605 L220 294 L267 341 Z " />
<glyph glyph-name="one" unicode="1" horiz-adv-x="700" d="M200 95 L302 95 L302 500 L200 500 L200 595 L302 595 L302 700 L397 700 L397 95 L500 95 L500 0 L200 0 L200 95 Z " />
<glyph glyph-name="two" unicode="2" horiz-adv-x="700" d="M125 277 L160 313 L195 313 L195 348 L231 384 L480 384 L480 605 L220 605 L220 490 L125 490 L125 629 L195 629 L195 665 L231 700 L468 700 L504 665 L504 629 L539 629 L575 594 L575 395 L539 359 L504 359 L504 324 L468 289 L220 289 L220 95 L575 95 L575 0 L195 0 L195 71 L160 71 L125 106 L125 277 Z " />
<glyph glyph-name="three" unicode="3" horiz-adv-x="700" d="M125 71 L125 210 L220 210 L220 95 L480 95 L480 317 L298 317 L298 412 L480 412 L480 605 L220 605 L220 490 L125 490 L125 629 L195 629 L195 665 L231 700 L468 700 L504 665 L504 629 L539 629 L575 594 L575 423 L539 387 L504 387 L504 341 L539 341 L575 305 L575 106 L539 71 L504 71 L504 36 L468 0 L231 0 L195 36 L195 71 L125 71 Z " />
<glyph glyph-name="four" unicode="4" horiz-adv-x="700" d="M125 701 L220 701 L220 412 L480 412 L480 701 L575 701 L575 0 L480 0 L480 317 L231 317 L196 353 L196 388 L125 388 L125 701 Z " />
<glyph glyph-name="five" unicode="5" horiz-adv-x="700" d="M125 210 L220 210 L220 95 L480 95 L480 317 L231 317 L195 352 L195 387 L125 387 L125 700 L575 700 L575 605 L220 605 L220 412 L468 412 L504 376 L504 341 L539 341 L575 305 L575 106 L539 71 L504 71 L504 36 L468 0 L231 0 L195 36 L195 71 L125 71 L125 210 Z " />
<glyph glyph-name="six" unicode="6" horiz-adv-x="700" d="M160 629 L195 629 L195 665 L231 700 L468 700 L504 665 L504 629 L575 629 L575 490 L480 490 L480 605 L220 605 L220 412 L468 412 L504 376 L504 341 L539 341 L575 305 L575 106 L539 71 L504 71 L504 36 L468 0 L231 0 L195 36 L195 71 L160 71 L125 106 L125 594 L160 629 Z M480 95 L480 317 L220 317 L220 95 L480 95 Z " />
<glyph glyph-name="seven" unicode="7" horiz-adv-x="700" d="M480 605 L125 605 L125 700 L575 700 L575 502 L432 359 L397 359 L397 0 L302 0 L302 384 L373 384 L373 434 L480 541 L480 605 Z " />
<glyph glyph-name="eight" unicode="8" horiz-adv-x="700" d="M160 341 L195 341 L195 387 L160 387 L125 423 L125 594 L160 629 L195 629 L195 665 L231 700 L468 700 L504 665 L504 629 L539 629 L575 594 L575 423 L539 387 L504 387 L504 341 L539 341 L575 305 L575 106 L539 71 L504 71 L504 36 L468 0 L231 0 L195 36 L195 71 L160 71 L125 106 L125 305 L160 341 Z M480 95 L480 317 L220 317 L220 95 L480 95 Z M220 412 L480 412 L480 605 L220 605 L220 412 Z " />
<glyph glyph-name="nine" unicode="9" horiz-adv-x="700" d="M125 594 L160 629 L195 629 L195 665 L231 700 L468 700 L504 665 L504 629 L539 629 L575 594 L575 106 L539 71 L504 71 L504 36 L468 0 L231 0 L195 36 L195 71 L125 71 L125 210 L220 210 L220 95 L480 95 L480 289 L231 289 L195 324 L195 359 L160 359 L125 395 L125 594 Z M480 384 L480 605 L220 605 L220 384 L480 384 Z " />
<glyph glyph-name="comma" unicode="&#x2c;" horiz-adv-x="700" d="M415 130 L415 0 L389 -97 L324 -97 L350 0 L285 0 L285 130 L415 130 Z " />
<glyph glyph-name="period" unicode="&#x2e;" horiz-adv-x="700" d="M415 130 L415 0 L285 0 L285 130 L415 130 Z " />
<glyph glyph-name="exclam" unicode="&#x21;" horiz-adv-x="700" d="M410 120 L410 0 L290 0 L290 120 L410 120 Z M302 700 L397 700 L397 200 L302 200 L302 700 Z " />
<glyph glyph-name="quotedbl" unicode="&#x22;" horiz-adv-x="700" d="M220 700 L325 700 L325 550 L220 550 L220 700 Z M480 700 L480 550 L375 550 L375 700 L480 700 Z " />
<glyph glyph-name="numbersign" unicode="&#x23;" horiz-adv-x="700" d="M212 310 L212 405 L125 405 L125 500 L212 500 L212 700 L307 700 L307 500 L393 500 L393 700 L488 700 L488 500 L575 500 L575 405 L488 405 L488 310 L575 310 L575 215 L488 215 L488 0 L393 0 L393 215 L307 215 L307 0 L212 0 L212 215 L125 215 L125 310 L212 310 Z M307 310 L393 310 L393 405 L307 405 L307 310 Z " />
<glyph glyph-name="dollar" unicode="&#x24;" horiz-adv-x="700" d="M125 210 L220 210 L220 95 L302 95 L302 317 L231 317 L195 352 L195 387 L160 387 L125 423 L125 594 L160 629 L195 629 L195 665 L231 700 L302 700 L302 795 L397 795 L397 700 L468 700 L504 665 L504 629 L575 629 L575 490 L480 490 L480 605 L397 605 L397 412 L468 412 L504 376 L504 341 L539 341 L575 305 L575 106 L539 71 L504 71 L504 36 L468 0 L397 0 L397 -95 L302 -95 L302 0 L231 0 L195 36 L195 71 L125 71 L125 210 Z M397 317 L397 95 L480 95 L480 317 L397 317 Z M220 412 L302 412 L302 605 L220 605 L220 412 Z " />
<glyph glyph-name="percent" unicode="&#x25;" horiz-adv-x="700" d="M125 192 L480 547 L480 700 L575 700 L575 508 L220 153 L220 0 L125 0 L125 192 Z M362 72 L362 188 L386 212 L410 212 L410 236 L434 260 L527 260 L552 236 L552 212 L575 212 L600 188 L600 72 L575 48 L552 48 L552 24 L527 0 L434 0 L410 24 L410 48 L386 48 L362 72 Z M124 652 L148 652 L148 676 L172 700 L265 700 L289 676 L289 652 L313 652 L337 628 L337 513 L313 488 L289 488 L289 464 L265 440 L172 440 L148 464 L148 488 L124 488 L100 513 L100 628 L124 652 Z M447 85 L515 85 L515 175 L447 175 L447 85 Z M185 615 L185 525 L252 525 L252 615 L185 615 Z " />
<glyph glyph-name="ampersand" unicode="&#x26;" horiz-adv-x="700" d="M105 305 L141 341 L176 341 L176 387 L141 387 L105 423 L105 594 L141 629 L176 629 L176 700 L425 700 L425 605 L200 605 L200 411 L425 411 L425 500 L520 500 L520 411 L615 411 L615 316 L520 316 L520 106 L484 71 L449 71 L449 36 L414 0 L211 0 L176 36 L176 71 L141 71 L105 106 L105 305 Z M425 95 L425 316 L200 316 L200 95 L425 95 Z " />
<glyph glyph-name="quotesingle" unicode="&#x27;" horiz-adv-x="700" d="M297 700 L402 700 L402 550 L297 550 L297 700 Z " />
<glyph glyph-name="parenleft" unicode="&#x28;" horiz-adv-x="700" d="M225 689 L260 725 L295 725 L295 760 L331 795 L475 795 L475 700 L320 700 L320 0 L475 0 L475 -95 L331 -95 L295 -59 L295 -24 L260 -24 L225 11 L225 689 Z " />
<glyph glyph-name="parenright" unicode="&#x29;" horiz-adv-x="700" d="M368 795 L404 760 L404 725 L439 725 L475 689 L475 11 L439 -24 L404 -24 L404 -59 L368 -95 L225 -95 L225 0 L380 0 L380 700 L225 700 L225 795 L368 795 Z " />
<glyph glyph-name="asterisk" unicode="&#x2a;" horiz-adv-x="700" d="M206 507 L269 543 L269 562 L206 598 L238 655 L301 618 L317 628 L317 700 L382 700 L382 628 L398 618 L461 655 L494 598 L431 562 L431 543 L494 507 L461 451 L398 487 L382 478 L382 405 L317 405 L317 478 L301 487 L238 451 L206 507 Z " />
<glyph glyph-name="plus" unicode="&#x2b;" horiz-adv-x="700" d="M148 250 L148 345 L302 345 L302 499 L397 499 L397 345 L551 345 L551 250 L397 250 L397 96 L302 96 L302 250 L148 250 Z " />
<glyph glyph-name="hyphen" unicode="&#x2d;" horiz-adv-x="700" d="M527 250 L172 250 L172 345 L527 345 L527 250 Z " />
<glyph glyph-name="slash" unicode="&#x2f;" horiz-adv-x="700" d="M480 547 L480 700 L575 700 L575 508 L220 153 L220 0 L125 0 L125 192 L480 547 Z " />
<glyph glyph-name="colon" unicode="&#x3a;" horiz-adv-x="700" d="M415 130 L415 0 L285 0 L285 130 L415 130 Z M285 370 L285 500 L415 500 L415 370 L285 370 Z " />
<glyph glyph-name="semicolon" unicode="&#x3b;" horiz-adv-x="700" d="M285 0 L285 130 L415 130 L415 0 L388 -97 L323 -97 L350 0 L285 0 Z M285 500 L415 500 L415 370 L285 370 L285 500 Z " />
<glyph glyph-name="less" unicode="&#x3c;" horiz-adv-x="700" d="M522 67 L455 0 L137 318 L455 636 L522 569 L271 318 L522 67 Z " />
<glyph glyph-name="equal" unicode="&#x3d;" horiz-adv-x="700" d="M575 220 L575 125 L125 125 L125 220 L575 220 Z M125 355 L125 450 L575 450 L575 355 L125 355 Z " />
<glyph glyph-name="greater" unicode="&#x3e;" horiz-adv-x="700" d="M428 318 L177 569 L244 636 L562 318 L244 0 L177 67 L428 318 Z " />
<glyph glyph-name="question" unicode="&#x3f;" horiz-adv-x="700" d="M125 629 L195 629 L195 665 L231 700 L468 700 L504 665 L504 629 L539 629 L575 594 L575 423 L539 387 L504 387 L504 352 L468 317 L397 317 L397 200 L302 200 L302 341 L373 341 L373 376 L408 412 L480 412 L480 605 L220 605 L220 488 L125 488 L125 629 Z M410 0 L290 0 L290 120 L410 120 L410 0 Z " />
<glyph glyph-name="at" unicode="&#x40;" horiz-adv-x="700" d="M125 11 L125 593 L161 629 L196 629 L196 664 L232 700 L469 700 L505 664 L505 629 L540 629 L575 594 L575 95 L397 95 L361 131 L361 166 L326 166 L291 201 L291 394 L326 429 L361 429 L361 465 L397 500 L480 500 L480 605 L220 605 L220 0 L480 0 L480 -95 L196 -95 L196 -25 L161 -25 L125 11 Z M386 190 L480 190 L480 405 L386 405 L386 190 Z " />
<glyph glyph-name="bracketleft" unicode="&#x5b;" horiz-adv-x="700" d="M225 -95 L225 795 L475 795 L475 700 L320 700 L320 0 L475 0 L475 -95 L225 -95 Z " />
<glyph glyph-name="bracketright" unicode="&#x5d;" horiz-adv-x="700" d="M475 795 L475 -95 L225 -95 L225 0 L380 0 L380 700 L225 700 L225 795 L475 795 Z " />
<glyph glyph-name="asciicircum" unicode="&#x5e;" horiz-adv-x="700" d="M267 629 L302 629 L302 700 L397 700 L397 629 L432 629 L579 483 L512 415 L373 555 L373 605 L326 605 L326 555 L187 415 L120 483 L267 629 Z " />
<glyph glyph-name="underscore" unicode="&#x5f;" horiz-adv-x="700" d="M575 -95 L125 -95 L125 0 L575 0 L575 -95 Z " />
<glyph glyph-name="grave" unicode="&#x60;" horiz-adv-x="700" d="M261 742 L356 742 L398 585 L303 585 L261 742 Z " />
<glyph glyph-name="braceleft" unicode="&#x7b;" horiz-adv-x="700" d="M199 411 L269 411 L269 688 L305 724 L340 724 L340 759 L376 795 L519 795 L519 700 L364 700 L364 422 L329 387 L294 387 L294 341 L329 341 L364 305 L364 0 L519 0 L519 -95 L376 -95 L340 -60 L340 -25 L305 -25 L269 11 L269 316 L199 316 L199 411 Z " />
<glyph glyph-name="bar" unicode="&#x7c;" horiz-adv-x="700" d="M302 795 L397 795 L397 -95 L302 -95 L302 795 Z " />
<glyph glyph-name="braceright" unicode="&#x7d;" horiz-adv-x="700" d="M180 -95 L180 0 L335 0 L335 305 L370 341 L405 341 L405 387 L370 387 L335 422 L335 700 L180 700 L180 795 L323 795 L359 759 L359 724 L394 724 L430 688 L430 411 L500 411 L500 316 L430 316 L430 11 L394 -25 L359 -25 L359 -60 L323 -95 L180 -95 Z " />
<glyph glyph-name="asciitilde" unicode="&#x7e;" horiz-adv-x="700" d="M135 369 L170 369 L170 405 L206 440 L291 440 L326 405 L326 369 L362 369 L397 334 L397 285 L505 285 L505 440 L600 440 L600 296 L564 261 L529 261 L529 226 L493 190 L408 190 L373 226 L373 261 L338 261 L302 296 L302 345 L195 345 L195 190 L100 190 L100 334 L135 369 Z " />
<glyph glyph-name="multiply" unicode="&#xd7;" horiz-adv-x="700" d="M157 423 L224 490 L350 365 L475 490 L542 423 L417 298 L542 172 L475 105 L350 231 L224 105 L157 172 L282 298 L157 423 Z " />
<glyph glyph-name="arrowright" unicode="&#x2192;" horiz-adv-x="700" d="M504 364 L332 536 L392 596 L625 364 L625 279 L392 46 L332 106 L504 279 L75 279 L75 364 L504 364 Z " />
<glyph glyph-name="backslash" unicode="&#x5c;" horiz-adv-x="700" d="M575 192 L575 0 L480 0 L480 153 L125 508 L125 700 L220 700 L220 547 L575 192 Z " />
<glyph glyph-name="quoteleft" unicode="&#x2018;" horiz-adv-x="700" d="M295 472 L295 602 L321 700 L386 700 L360 602 L405 602 L405 472 L295 472 Z " />
<glyph glyph-name="quoteright" unicode="&#x2019;" horiz-adv-x="700" d="M405 700 L405 570 L379 472 L314 472 L340 570 L295 570 L295 700 L405 700 Z " />
<glyph glyph-name="quotesinglbase" unicode="&#x201a;" horiz-adv-x="700" d="M405 130 L405 0 L379 -98 L314 -98 L340 0 L295 0 L295 130 L405 130 Z " />
<glyph glyph-name="quotedblleft" unicode="&#x201c;" horiz-adv-x="700" d="M380 473 L380 603 L406 701 L471 701 L445 603 L490 603 L490 473 L380 473 Z M236 701 L301 701 L275 603 L320 603 L320 473 L210 473 L210 603 L236 701 Z " />
<glyph glyph-name="quotedblright" unicode="&#x201d;" horiz-adv-x="700" d="M490 701 L490 571 L464 473 L399 473 L425 571 L380 571 L380 701 L490 701 Z M210 571 L210 701 L320 701 L320 571 L294 473 L229 473 L255 571 L210 571 Z " />
<glyph glyph-name="quotedblbase" unicode="&#x201e;" horiz-adv-x="700" d="M490 130 L490 0 L464 -98 L399 -98 L425 0 L380 0 L380 130 L490 130 Z M210 0 L210 130 L320 130 L320 0 L294 -98 L229 -98 L255 0 L210 0 Z " />
<glyph glyph-name="exclamdown" unicode="&#xa1;" horiz-adv-x="700" d="M289.025 580.007 L289.025 700 L409.018 700 L409.018 580.007 L289.025 580.007 Z M397.018 0.0427246 L302.024 0.0427246 L302.024 500.012 L397.018 500.012 L397.018 0.0427246 Z " />
<glyph glyph-name="copyright" unicode="&#xa9;" horiz-adv-x="700" d="M170 543 L189 543 L189 563 L209 583 L491 583 L511 563 L511 543 L530 543 L550 524 L550 177 L530 157 L511 157 L511 137 L491 117 L209 117 L189 137 L189 157 L170 157 L150 177 L150 524 L170 543 Z M203 530 L203 170 L497 170 L497 530 L203 530 Z M277 263 L257 283 L257 418 L277 438 L297 438 L297 457 L316 477 L384 477 L404 457 L404 438 L423 438 L443 418 L443 378 L390 378 L390 424 L310 424 L310 277 L390 277 L390 324 L443 324 L443 283 L423 263 L404 263 L404 243 L384 224 L316 224 L297 243 L297 263 L277 263 Z " />
<glyph glyph-name="registered" unicode="&#xae;" horiz-adv-x="700" d="M150 524 L169 543 L189 543 L189 563 L209 583 L491 583 L511 563 L511 543 L530 543 L550 524 L550 177 L530 157 L511 157 L511 137 L491 117 L209 117 L189 137 L189 157 L169 157 L150 177 L150 524 Z M203 170 L497 170 L497 530 L203 530 L203 170 Z M256 224 L256 477 L384 477 L404 457 L404 437 L423 437 L443 417 L443 370 L423 350 L404 350 L404 324 L423 324 L443 304 L443 224 L390 224 L390 310 L309 310 L309 224 L256 224 Z M309 424 L309 363 L390 363 L390 424 L309 424 Z " />
<glyph glyph-name="trademark" unicode="&#x2122;" horiz-adv-x="700" d="M376 460 L376 700 L431 700 L457 674 L457 660 L476 660 L476 674 L502 700 L557 700 L557 460 L518 460 L518 661 L507 650 L486 650 L486 565 L447 565 L447 650 L427 650 L415 661 L415 460 L376 460 Z M323 700 L323 661 L252 661 L252 460 L213 460 L213 661 L142 661 L142 700 L323 700 Z " />
<glyph glyph-name="questiondown" unicode="&#xbf;" horiz-adv-x="700" d="M160 313 L195 313 L195 348 L231 384 L302 384 L302 500 L397 500 L397 359 L326 359 L326 324 L291 289 L220 289 L220 95 L480 95 L480 212 L575 212 L575 71 L504 71 L504 36 L468 0 L231 0 L195 36 L195 71 L160 71 L125 107 L125 278 L160 313 Z M290 580 L290 700 L410 700 L410 580 L290 580 Z " />
<glyph glyph-name="currency" unicode="&#xa4;" horiz-adv-x="700" d="M222 243 L205 260 L205 362 L222 379 L161 439 L222 499 L282 439 L299 456 L401 456 L418 439 L478 499 L538 439 L478 379 L495 362 L495 260 L478 243 L538 183 L478 122 L418 183 L401 166 L299 166 L282 183 L222 122 L161 183 L222 243 Z M290 371 L290 251 L410 251 L410 371 L290 371 Z " />
<glyph glyph-name="cent" unicode="&#xa2;" horiz-adv-x="700" d="M160 524 L195 524 L195 560 L231 595 L302 595 L302 700 L397 700 L397 595 L468 595 L504 560 L504 524 L575 524 L575 429 L480 429 L480 500 L397 500 L397 190 L480 190 L480 261 L575 261 L575 166 L504 166 L504 131 L468 95 L397 95 L397 0 L302 0 L302 95 L231 95 L195 131 L195 166 L160 166 L125 201 L125 489 L160 524 Z M302 190 L302 500 L220 500 L220 190 L302 190 Z " />
<glyph glyph-name="sterling" unicode="&#xa3;" horiz-adv-x="700" d="M125 317 L125 412 L220 412 L220 594 L255 629 L290 629 L290 665 L326 700 L575 700 L575 605 L315 605 L315 412 L527 412 L527 317 L315 317 L315 95 L575 95 L575 0 L125 0 L125 95 L220 95 L220 317 L125 317 Z " />
<glyph glyph-name="yen" unicode="&#xa5;" horiz-adv-x="700" d="M220 700 L220 569 L326 462 L326 412 L373 412 L373 462 L480 569 L480 700 L575 700 L575 530 L432 387 L397 387 L397 317 L551 317 L551 222 L397 222 L397 0 L302 0 L302 222 L148 222 L148 317 L302 317 L302 387 L267 387 L125 530 L125 700 L220 700 Z " />
<glyph glyph-name="brokenbar" unicode="&#xa6;" horiz-adv-x="700" d="M302 -95 L302 317 L397 317 L397 -95 L302 -95 Z M302 795 L397 795 L397 412 L302 412 L302 795 Z " />
<glyph glyph-name="section" unicode="&#xa7;" horiz-adv-x="700" d="M125 424 L160 459 L195 459 L195 506 L160 506 L125 541 L125 689 L160 724 L195 724 L195 760 L231 795 L468 795 L504 760 L504 724 L575 724 L575 608 L480 608 L480 700 L220 700 L220 530 L468 530 L504 495 L504 459 L539 459 L575 424 L575 276 L539 241 L504 241 L504 194 L539 194 L575 159 L575 11 L539 -24 L504 -24 L504 -59 L468 -95 L231 -95 L195 -59 L195 -24 L125 -24 L125 92 L220 92 L220 0 L480 0 L480 170 L231 170 L195 206 L195 241 L160 241 L125 276 L125 424 Z M480 265 L480 435 L220 435 L220 265 L480 265 Z " />
<glyph glyph-name="guillemotleft" unicode="&#xab;" horiz-adv-x="700" d="M209 298 L393 114 L326 47 L75 298 L326 549 L393 482 L209 298 Z M441 298 L625 114 L557 47 L306 298 L557 549 L625 482 L441 298 Z " />
<glyph glyph-name="logicalnot" unicode="&#xac;" horiz-adv-x="700" d="M575 155 L480 155 L480 345 L125 345 L125 440 L575 440 L575 155 Z " />
<glyph glyph-name="plusminus" unicode="&#xb1;" horiz-adv-x="700" d="M148 345 L302 345 L302 499 L397 499 L397 345 L551 345 L551 250 L397 250 L397 95 L527 95 L527 0 L172 0 L172 95 L302 95 L302 250 L148 250 L148 345 Z " />
<glyph glyph-name="paragraph" unicode="&#xb6;" horiz-adv-x="700" d="M160 629 L195 629 L195 665 L231 700 L575 700 L575 0 L480 0 L480 605 L385 605 L385 0 L290 0 L290 317 L231 317 L195 352 L195 387 L160 387 L125 423 L125 594 L160 629 Z " />
<glyph glyph-name="guillemotright" unicode="&#xbb;" horiz-adv-x="700" d="M306 482 L374 549 L625 298 L374 47 L306 114 L490 298 L306 482 Z M75 482 L142 549 L393 298 L142 47 L75 114 L259 298 L75 482 Z " />
<glyph glyph-name="divide" unicode="&#xf7;" horiz-adv-x="700" d="M148 345 L551 345 L551 250 L148 250 L148 345 Z M285 0 L285 130 L415 130 L415 0 L285 0 Z M415 595 L415 465 L285 465 L285 595 L415 595 Z " />
<glyph glyph-name="middot" unicode="&#xb7;" horiz-adv-x="700" d="M415 439 L415 309 L285 309 L285 439 L415 439 Z " />
<glyph glyph-name="circumflex" unicode="&#x2c6;" horiz-adv-x="700" d="M279 715 L421 715 L491 585 L396 585 L350 671 L304 585 L209 585 L279 715 Z " />
<glyph glyph-name="caron" unicode="&#x2c7;" horiz-adv-x="700" d="M209 715 L304 715 L350 630 L396 715 L491 715 L421 585 L279 585 L209 715 Z " />
<glyph glyph-name="breve" unicode="&#x2d8;" horiz-adv-x="700" d="M230 725 L310 725 L310 665 L390 665 L390 725 L470 725 L470 675 L440 645 L411 645 L411 615 L381 585 L320 585 L290 615 L290 645 L260 645 L230 675 L230 725 Z " />
<glyph glyph-name="dotaccent" unicode="&#x2d9;" horiz-adv-x="700" d="M303 680 L398 680 L398 585 L303 585 L303 680 Z " />
<glyph glyph-name="ring" unicode="&#x2da;" horiz-adv-x="700" d="M238 641 L266 669 L293 669 L293 697 L321 725 L379 725 L407 697 L407 669 L435 669 L463 641 L463 584 L435 556 L407 556 L407 528 L379 500 L321 500 L293 528 L293 556 L266 556 L238 584 L238 641 Z M313 575 L388 575 L388 650 L313 650 L313 575 Z " />
<glyph glyph-name="ogonek" unicode="&#x2db;" horiz-adv-x="546" d="M444 -168 L351 -168 L319 -136 L319 -105 L256 -105 L256 45 L341 45 L341 -83 L444 -83 L444 -168 Z " />
<glyph glyph-name="tilde" unicode="&#x2dc;" horiz-adv-x="700" d="M231 686 L231 713 L259 741 L304 741 L332 713 L332 686 L387 686 L387 630 L450 630 L450 711 L525 711 L525 610 L469 610 L469 583 L441 555 L396 555 L368 583 L368 610 L313 610 L313 666 L250 666 L250 585 L175 585 L175 686 L231 686 Z " />
<glyph glyph-name="cedilla" unicode="&#xb8;" horiz-adv-x="700" d="M256 -83 L359 -83 L359 45 L444 45 L444 -105 L381 -105 L381 -136 L349 -168 L256 -168 L256 -83 Z " />
<glyph glyph-name="dieresis" unicode="&#xa8;" horiz-adv-x="700" d="M476 680 L476 585 L381 585 L381 680 L476 680 Z M224 680 L319 680 L319 585 L224 585 L224 680 Z " />
<glyph glyph-name="overscore" unicode="&#xaf;" horiz-adv-x="700" d="M224 680 L476 680 L476 585 L224 585 L224 680 Z " />
<glyph glyph-name="hungarumlaut" unicode="&#x2dd;" horiz-adv-x="700" d="M409 715 L504 715 L469 585 L374 585 L409 715 Z M251 715 L346 715 L311 585 L216 585 L251 715 Z " />
<glyph glyph-name="Ccedilla" unicode="&#xc7;" horiz-adv-x="700" d="M125 594 L160 629 L195 629 L195 665 L231 700 L468 700 L504 665 L504 629 L575 629 L575 490 L480 490 L480 605 L220 605 L220 95 L480 95 L480 210 L575 210 L575 71 L504 71 L504 36 L468 0 L231 0 L195 36 L195 71 L160 71 L125 106 L125 594 Z M256 -83 L359 -83 L359 45 L444 45 L444 -105 L381 -105 L381 -136 L349 -168 L256 -168 L256 -83 Z " />
<glyph glyph-name="ccedilla" unicode="&#xe7;" horiz-adv-x="700" d="M125 394 L160 429 L195 429 L195 465 L231 500 L468 500 L504 465 L504 429 L575 429 L575 334 L480 334 L480 405 L220 405 L220 95 L480 95 L480 166 L575 166 L575 71 L504 71 L504 36 L468 0 L231 0 L195 36 L195 71 L160 71 L125 106 L125 394 Z M256 -83 L359 -83 L359 45 L444 45 L444 -105 L381 -105 L381 -136 L349 -168 L256 -168 L256 -83 Z " />
<glyph glyph-name="dotlessi" unicode="&#x131;" horiz-adv-x="700" d="M397 500 L397 95 L500 95 L500 0 L200 0 L200 95 L302 95 L302 405 L200 405 L200 500 L397 500 Z " />
<glyph glyph-name="aogonek" unicode="&#x105;" horiz-adv-x="700" d="M180 429 L180 464 L216 500 L453 500 L489 464 L489 429 L524 429 L560 393 L560 95 L630 95 L630 0 L527 0 L527 -83 L630 -83 L630 -168 L537 -168 L505 -136 L505 -105 L442 -105 L442 0 L216 0 L180 35 L180 70 L145 70 L110 106 L110 191 L145 226 L180 226 L180 262 L216 297 L465 297 L465 405 L205 405 L205 334 L110 334 L110 429 L180 429 Z M205 95 L465 95 L465 202 L205 202 L205 95 Z " />
<glyph glyph-name="Aogonek" unicode="&#x104;" horiz-adv-x="700" d="M125 594 L160 629 L195 629 L195 665 L231 700 L468 700 L504 665 L504 629 L539 629 L575 594 L575 0 L502 0 L502 -83 L605 -83 L605 -168 L512 -168 L480 -136 L480 -105 L417 -105 L417 45 L480 45 L480 289 L220 289 L220 0 L125 0 L125 594 Z M220 605 L220 384 L480 384 L480 605 L220 605 Z " />
<glyph glyph-name="Eogonek" unicode="&#x118;" horiz-adv-x="700" d="M125 700 L575 700 L575 605 L220 605 L220 412 L527 412 L527 317 L220 317 L220 95 L575 95 L575 0 L125 0 L125 700 Z M575 -168 L482 -168 L450 -136 L450 -105 L387 -105 L387 45 L472 45 L472 -83 L575 -83 L575 -168 Z " />
<glyph glyph-name="eogonek" unicode="&#x119;" horiz-adv-x="700" d="M160 429 L195 429 L195 465 L231 500 L468 500 L504 465 L504 429 L539 429 L575 394 L575 309 L539 273 L504 273 L504 238 L468 203 L220 203 L220 95 L480 95 L480 166 L575 166 L575 71 L504 71 L504 36 L468 0 L231 0 L195 36 L195 71 L160 71 L125 106 L125 394 L160 429 Z M220 298 L480 298 L480 405 L220 405 L220 298 Z M575 -168 L482 -168 L450 -136 L450 -105 L387 -105 L387 45 L472 45 L472 -83 L575 -83 L575 -168 Z " />
<glyph glyph-name="iogonek" unicode="&#x12f;" horiz-adv-x="700" d="M200 95 L302 95 L302 405 L200 405 L200 500 L398 500 L398 95 L500 95 L500 0 L398 0 L398 -83 L500 -83 L500 -168 L407 -168 L376 -136 L376 -105 L312 -105 L312 0 L200 0 L200 95 Z M405 590 L295 590 L295 710 L405 710 L405 590 Z " />
<glyph glyph-name="Iogonek" unicode="&#x12e;" horiz-adv-x="700" d="M200 605 L200 700 L500 700 L500 605 L397 605 L397 95 L500 95 L500 0 L200 0 L200 95 L302 95 L302 605 L200 605 Z M500 -168 L407 -168 L375 -136 L375 -105 L312 -105 L312 45 L397 45 L397 -83 L500 -83 L500 -168 Z " />
<glyph glyph-name="Scedilla" unicode="&#x15e;" horiz-adv-x="700" d="M125 210 L220 210 L220 95 L480 95 L480 317 L231 317 L195 352 L195 387 L160 387 L125 423 L125 594 L160 629 L195 629 L195 665 L231 700 L468 700 L504 665 L504 629 L575 629 L575 490 L480 490 L480 605 L220 605 L220 412 L468 412 L504 376 L504 341 L539 341 L575 305 L575 106 L539 71 L504 71 L504 36 L468 0 L231 0 L195 36 L195 71 L125 71 L125 210 Z M256 -83 L359 -83 L359 45 L444 45 L444 -105 L381 -105 L381 -136 L349 -168 L256 -168 L256 -83 Z " />
<glyph glyph-name="scedilla" unicode="&#x15f;" horiz-adv-x="700" d="M125 166 L220 166 L220 95 L480 95 L480 203 L231 203 L195 238 L195 273 L160 273 L125 309 L125 394 L160 429 L195 429 L195 465 L231 500 L468 500 L504 465 L504 429 L575 429 L575 334 L480 334 L480 405 L220 405 L220 298 L468 298 L504 262 L504 227 L539 227 L575 191 L575 106 L539 71 L504 71 L504 36 L468 0 L231 0 L195 36 L195 71 L125 71 L125 166 Z M256 -83 L359 -83 L359 45 L444 45 L444 -105 L381 -105 L381 -136 L349 -168 L256 -168 L256 -83 Z " />
<glyph glyph-name="uni0163" unicode="&#x163;" horiz-adv-x="700" d="M125 500 L255 500 L255 700 L350 700 L350 500 L575 500 L575 405 L350 405 L350 95 L575 95 L575 0 L410 0 L410 -105 L347 -105 L347 -136 L315 -168 L222 -168 L222 -83 L325 -83 L325 71 L291 71 L255 106 L255 405 L125 405 L125 500 Z " />
<glyph glyph-name="Uring" unicode="&#x16e;" horiz-adv-x="700" d="M220 700 L220 95 L480 95 L480 700 L575 700 L575 106 L539 71 L504 71 L504 36 L468 0 L231 0 L195 36 L195 71 L160 71 L125 106 L125 700 L220 700 Z M238 841 L266 869 L293 869 L293 897 L321 925 L379 925 L407 897 L407 869 L435 869 L463 841 L463 784 L435 756 L407 756 L407 728 L379 700 L321 700 L293 728 L293 756 L266 756 L238 784 L238 841 Z M313 775 L388 775 L388 850 L313 850 L313 775 Z " />
<glyph glyph-name="uring" unicode="&#x16f;" horiz-adv-x="700" d="M125 106 L125 500 L220 500 L220 95 L480 95 L480 500 L575 500 L575 71 L504 71 L504 36 L468 0 L231 0 L195 36 L195 71 L160 71 L125 106 Z M238 641 L266 669 L293 669 L293 697 L321 725 L379 725 L407 697 L407 669 L435 669 L463 641 L463 584 L435 556 L407 556 L407 528 L379 500 L321 500 L293 528 L293 556 L266 556 L238 584 L238 641 Z M313 575 L388 575 L388 650 L313 650 L313 575 Z " />
<glyph glyph-name="Uogonek" unicode="&#x172;" horiz-adv-x="700" d="M220 700 L220 95 L480 95 L480 700 L575 700 L575 106 L539 71 L504 71 L504 36 L468 0 L231 0 L195 36 L195 71 L160 71 L125 106 L125 700 L220 700 Z M575 -168 L482 -168 L450 -136 L450 -105 L387 -105 L387 45 L472 45 L472 -83 L575 -83 L575 -168 Z " />
<glyph glyph-name="uogonek" unicode="&#x173;" horiz-adv-x="700" d="M125 106 L125 500 L220 500 L220 95 L480 95 L480 500 L575 500 L575 71 L504 71 L504 36 L468 0 L231 0 L195 36 L195 71 L160 71 L125 106 Z M575 -168 L482 -168 L450 -136 L450 -105 L387 -105 L387 45 L472 45 L472 -83 L575 -83 L575 -168 Z " />
<glyph glyph-name="uni0237" unicode="&#x237;" horiz-adv-x="700" d="M405 -105 L405 405 L200 405 L200 500 L500 500 L500 -94 L464 -129 L429 -129 L429 -200 L200 -200 L200 -105 L405 -105 Z " />
<glyph glyph-name="dcaron" unicode="&#x10f;" horiz-adv-x="700" d="M75 106 L75 394 L110 429 L145 429 L145 465 L181 500 L430 500 L430 700 L525 700 L525 71 L454 71 L454 36 L418 0 L181 0 L145 36 L145 71 L110 71 L75 106 Z M170 95 L430 95 L430 405 L170 405 L170 95 Z M590 570 L590 700 L700 700 L700 570 L674 472 L609 472 L635 570 L590 570 Z " />
<glyph glyph-name="Lcaron" unicode="&#x13d;" horiz-adv-x="700" d="M240 700 L240 95 L595 95 L595 0 L145 0 L145 700 L240 700 Z M353 700 L463 700 L463 570 L437 472 L372 472 L398 570 L353 570 L353 700 Z " />
<glyph glyph-name="lcaron" unicode="&#x13e;" horiz-adv-x="700" d="M148 605 L148 700 L345 700 L345 95 L448 95 L448 0 L148 0 L148 95 L251 95 L251 605 L148 605 Z M442 570 L442 700 L552 700 L552 570 L526 472 L461 472 L487 570 L442 570 Z " />
<glyph glyph-name="tcaron" unicode="&#x165;" horiz-adv-x="700" d="M75 500 L205 500 L205 700 L300 700 L300 500 L525 500 L525 405 L300 405 L300 95 L525 95 L525 0 L275 0 L275 71 L241 71 L205 106 L205 405 L75 405 L75 500 Z M590 570 L590 700 L700 700 L700 570 L674 472 L609 472 L635 570 L590 570 Z " />
<glyph glyph-name="Tbar" unicode="&#x166;" horiz-adv-x="700" d="M125 605 L125 700 L575 700 L575 605 L397 605 L397 410 L507 410 L507 315 L397 315 L397 0 L302 0 L302 315 L194 315 L194 410 L302 410 L302 605 L125 605 Z " />
<glyph glyph-name="tbar" unicode="&#x167;" horiz-adv-x="700" d="M125 500 L255 500 L255 700 L350 700 L350 500 L575 500 L575 405 L350 405 L350 305 L476 305 L476 210 L350 210 L350 95 L575 95 L575 0 L325 0 L325 71 L291 71 L255 106 L255 210 L170 210 L170 305 L255 305 L255 405 L125 405 L125 500 Z " />
<glyph glyph-name="Hbar" unicode="&#x126;" horiz-adv-x="700" d="M575 525 L575 0 L480 0 L480 317 L220 317 L220 0 L125 0 L125 525 L74 525 L74 610 L125 610 L125 700 L220 700 L220 610 L480 610 L480 700 L575 700 L575 610 L627 610 L627 525 L575 525 Z M220 525 L220 412 L480 412 L480 525 L220 525 Z " />
<glyph glyph-name="hbar" unicode="&#x127;" horiz-adv-x="700" d="M74 640 L125 640 L125 700 L220 700 L220 640 L327 640 L327 555 L220 555 L220 500 L468 500 L504 465 L504 429 L539 429 L575 394 L575 0 L480 0 L480 405 L220 405 L220 0 L125 0 L125 555 L74 555 L74 640 Z " />
<glyph glyph-name="Eth" unicode="&#xd0;" horiz-adv-x="700" d="M125 410 L125 700 L468 700 L504 665 L504 629 L539 629 L575 594 L575 106 L539 71 L504 71 L504 36 L468 0 L125 0 L125 315 L42 315 L42 410 L125 410 Z M397 410 L397 315 L220 315 L220 95 L480 95 L480 605 L220 605 L220 410 L397 410 Z " />
<glyph glyph-name="Dcroat" unicode="&#x110;" horiz-adv-x="700" d="M125 410 L125 700 L468 700 L504 665 L504 629 L539 629 L575 594 L575 106 L539 71 L504 71 L504 36 L468 0 L125 0 L125 315 L42 315 L42 410 L125 410 Z M397 410 L397 315 L220 315 L220 95 L480 95 L480 605 L220 605 L220 410 L397 410 Z " />
<glyph glyph-name="dslash" unicode="&#x111;" horiz-adv-x="700" d="M160 429 L195 429 L195 465 L231 500 L480 500 L480 555 L390 555 L390 640 L480 640 L480 700 L575 700 L575 640 L643 640 L643 555 L575 555 L575 71 L504 71 L504 36 L468 0 L231 0 L195 36 L195 71 L160 71 L125 106 L125 394 L160 429 Z M220 95 L480 95 L480 405 L220 405 L220 95 Z " />
<glyph glyph-name="Ldot" unicode="&#x13f;" horiz-adv-x="700" d="M240 95 L595 95 L595 0 L145 0 L145 700 L240 700 L240 95 Z M463 500 L463 370 L353 370 L353 500 L463 500 Z " />
<glyph glyph-name="ldot" unicode="&#x140;" horiz-adv-x="700" d="M148 605 L148 700 L345 700 L345 95 L448 95 L448 0 L148 0 L148 95 L251 95 L251 605 L148 605 Z M442 500 L552 500 L552 370 L442 370 L442 500 Z " />
<glyph glyph-name="uni0162" unicode="&#x162;" horiz-adv-x="700" d="M575 700 L575 605 L397 605 L397 -105 L324 -105 L324 -136 L292 -168 L199 -168 L199 -83 L302 -83 L302 605 L125 605 L125 700 L575 700 Z " />
<glyph glyph-name="kgreenlandic" unicode="&#x138;" horiz-adv-x="700" d="M125 500 L220 500 L220 207 L289 207 L289 258 L480 449 L480 500 L575 500 L575 410 L415 250 L575 91 L575 0 L480 0 L480 51 L348 183 L313 183 L313 112 L220 112 L220 0 L125 0 L125 500 Z " />
<glyph glyph-name="napostrophe" unicode="&#x149;" horiz-adv-x="700" d="M179 429 L250 429 L250 464 L285 500 L523 500 L559 464 L559 429 L594 429 L629 394 L629 0 L534 0 L534 405 L274 405 L274 0 L179 0 L179 429 Z M115 570 L70 570 L70 700 L180 700 L180 570 L154 472 L89 472 L115 570 Z " />
<glyph glyph-name="uni0218" unicode="&#x218;" horiz-adv-x="700" d="M125 423 L125 594 L160 629 L195 629 L195 665 L231 700 L468 700 L504 665 L504 629 L575 629 L575 490 L480 490 L480 605 L220 605 L220 412 L468 412 L504 376 L504 341 L539 341 L575 305 L575 106 L539 71 L504 71 L504 36 L468 0 L231 0 L195 36 L195 71 L125 71 L125 210 L220 210 L220 95 L480 95 L480 317 L231 317 L195 352 L195 387 L160 387 L125 423 Z M275 -200 L310 -70 L405 -70 L370 -200 L275 -200 Z " />
<glyph glyph-name="uni0219" unicode="&#x219;" horiz-adv-x="700" d="M125 309 L125 394 L160 429 L195 429 L195 465 L231 500 L468 500 L504 465 L504 429 L575 429 L575 334 L480 334 L480 405 L220 405 L220 298 L468 298 L504 262 L504 227 L539 227 L575 191 L575 106 L539 71 L504 71 L504 36 L468 0 L231 0 L195 36 L195 71 L125 71 L125 166 L220 166 L220 95 L480 95 L480 203 L231 203 L195 238 L195 273 L160 273 L125 309 Z M275 -200 L310 -70 L405 -70 L370 -200 L275 -200 Z " />
<glyph glyph-name="uni021A" unicode="&#x21a;" horiz-adv-x="700" d="M125 605 L125 700 L575 700 L575 605 L397 605 L397 0 L302 0 L302 605 L125 605 Z M265 -200 L300 -70 L395 -70 L360 -200 L265 -200 Z " />
<glyph glyph-name="uni021B" unicode="&#x21b;" horiz-adv-x="700" d="M125 405 L125 500 L255 500 L255 700 L350 700 L350 500 L575 500 L575 405 L350 405 L350 95 L575 95 L575 0 L325 0 L325 71 L291 71 L255 106 L255 405 L125 405 Z M380 -200 L285 -200 L320 -70 L415 -70 L380 -200 Z " />
<glyph glyph-name="oe" unicode="&#x153;" horiz-adv-x="700" d="M87 106 L87 394 L123 429 L158 429 L158 465 L193 500 L506 500 L541 465 L541 429 L577 429 L612 394 L612 309 L577 273 L541 273 L541 238 L506 203 L397 203 L397 95 L517 95 L517 166 L612 166 L612 71 L541 71 L541 36 L506 0 L193 0 L158 36 L158 71 L123 71 L87 106 Z M182 95 L302 95 L302 405 L182 405 L182 95 Z M397 298 L517 298 L517 405 L397 405 L397 298 Z " />
<glyph glyph-name="OE" unicode="&#x152;" horiz-adv-x="700" d="M123 629 L158 629 L158 665 L193 700 L612 700 L612 605 L397 605 L397 412 L565 412 L565 317 L397 317 L397 95 L612 95 L612 0 L193 0 L158 36 L158 71 L123 71 L87 106 L87 594 L123 629 Z M182 95 L302 95 L302 605 L182 605 L182 95 Z " />
<glyph glyph-name="AE" unicode="&#xc6;" horiz-adv-x="700" d="M87 594 L123 629 L158 629 L158 665 L193 700 L612 700 L612 605 L397 605 L397 412 L565 412 L565 317 L397 317 L397 95 L612 95 L612 0 L302 0 L302 289 L182 289 L182 0 L87 0 L87 594 Z M182 384 L302 384 L302 605 L182 605 L182 384 Z " />
<glyph glyph-name="ae" unicode="&#xe6;" horiz-adv-x="700" d="M87 191 L123 227 L158 227 L158 262 L193 298 L302 298 L302 405 L182 405 L182 334 L87 334 L87 429 L158 429 L158 465 L193 500 L506 500 L541 465 L541 429 L577 429 L612 394 L612 309 L577 273 L541 273 L541 238 L506 203 L397 203 L397 95 L517 95 L517 166 L612 166 L612 71 L541 71 L541 36 L506 0 L193 0 L158 36 L158 71 L123 71 L87 106 L87 191 Z M182 95 L302 95 L302 203 L182 203 L182 95 Z M397 405 L397 298 L517 298 L517 405 L397 405 Z " />
<glyph glyph-name="ordfeminine" unicode="&#xaa;" horiz-adv-x="700" d="M224 480 L224 528 L244 548 L264 548 L264 567 L283 587 L423 587 L423 647 L277 647 L277 608 L224 608 L224 661 L264 661 L264 681 L283 701 L416 701 L436 681 L436 661 L456 661 L476 641 L476 421 L283 421 L264 441 L264 460 L244 460 L224 480 Z M277 474 L423 474 L423 534 L277 534 L277 474 Z " />
<glyph glyph-name="degree" unicode="&#xb0;" horiz-adv-x="700" d="M237 637 L268 637 L268 668 L300 700 L400 700 L432 668 L432 637 L463 637 L495 605 L495 505 L463 473 L432 473 L432 442 L400 410 L300 410 L268 442 L268 473 L237 473 L205 505 L205 605 L237 637 Z M410 495 L410 615 L290 615 L290 495 L410 495 Z " />
<glyph glyph-name="onesuperior" unicode="&#xb9;" horiz-adv-x="700" d="M266 473 L323 473 L323 594 L266 594 L266 647 L323 647 L323 700 L376 700 L376 473 L434 473 L434 420 L266 420 L266 473 Z " />
<glyph glyph-name="ordmasculine" unicode="&#xba;" horiz-adv-x="700" d="M244 661 L264 661 L264 681 L283 701 L416 701 L436 681 L436 661 L456 661 L476 641 L476 480 L456 460 L436 460 L436 441 L416 421 L283 421 L264 441 L264 460 L244 460 L224 480 L224 641 L244 661 Z M423 474 L423 647 L277 647 L277 474 L423 474 Z " />
<glyph glyph-name="twosuperior" unicode="&#xb2;" horiz-adv-x="700" d="M224 480 L224 527 L244 547 L264 547 L264 567 L284 587 L422 587 L422 647 L278 647 L278 607 L224 607 L224 661 L264 661 L264 680 L284 700 L416 700 L436 680 L436 661 L456 661 L476 641 L476 593 L456 573 L436 573 L436 553 L416 534 L278 534 L278 473 L476 473 L476 420 L284 420 L264 440 L264 460 L244 460 L224 480 Z " />
<glyph glyph-name="threesuperior" unicode="&#xb3;" horiz-adv-x="700" d="M224 460 L224 513 L278 513 L278 473 L422 473 L422 534 L322 534 L322 587 L422 587 L422 647 L278 647 L278 607 L224 607 L224 661 L264 661 L264 680 L284 700 L416 700 L436 680 L436 661 L456 661 L476 641 L476 593 L456 573 L436 573 L436 547 L456 547 L476 527 L476 480 L456 460 L436 460 L436 440 L416 420 L284 420 L264 440 L264 460 L224 460 Z " />
<glyph glyph-name="Oslash" unicode="&#xd8;" horiz-adv-x="700" d="M35 103 L125 192 L125 594 L160 629 L195 629 L195 665 L231 700 L468 700 L504 665 L504 629 L539 629 L550 618 L597 665 L664 597 L575 508 L575 106 L539 71 L504 71 L504 36 L468 0 L231 0 L195 36 L195 71 L160 71 L149 82 L102 36 L35 103 Z M220 605 L220 287 L480 547 L480 605 L220 605 Z M220 153 L220 95 L480 95 L480 413 L220 153 Z " />
<glyph glyph-name="Thorn" unicode="&#xde;" horiz-adv-x="700" d="M125 -105 L125 517 L220 517 L220 412 L468 412 L504 376 L504 341 L539 341 L575 305 L575 106 L539 71 L504 71 L504 36 L468 0 L220 0 L220 -105 L125 -105 Z M220 317 L220 95 L480 95 L480 317 L220 317 Z " />
<glyph glyph-name="thorn" unicode="&#xfe;" horiz-adv-x="700" d="M125 -200 L125 700 L220 700 L220 500 L468 500 L504 465 L504 429 L539 429 L575 394 L575 106 L539 71 L504 71 L504 36 L468 0 L220 0 L220 -200 L125 -200 Z M220 405 L220 95 L480 95 L480 405 L220 405 Z " />
<glyph glyph-name="germandbls" unicode="&#xdf;" horiz-adv-x="700" d="M160 629 L195 629 L195 665 L231 700 L468 700 L504 665 L504 629 L539 629 L575 594 L575 423 L539 387 L504 387 L504 341 L539 341 L575 305 L575 106 L539 71 L504 71 L504 36 L468 0 L277 0 L277 95 L480 95 L480 317 L277 317 L277 412 L480 412 L480 605 L220 605 L220 0 L125 0 L125 594 L160 629 Z " />
<glyph glyph-name="oslash" unicode="&#xf8;" horiz-adv-x="700" d="M100 67 L132 99 L125 106 L125 394 L160 429 L195 429 L195 465 L231 500 L468 500 L500 468 L532 500 L600 433 L568 401 L575 394 L575 106 L539 71 L504 71 L504 36 L468 0 L231 0 L199 32 L167 0 L100 67 Z M480 95 L480 313 L262 95 L480 95 Z M220 405 L220 187 L437 405 L220 405 Z " />
<glyph glyph-name="eth" unicode="&#xf0;" horiz-adv-x="700" d="M160 429 L195 429 L195 465 L231 500 L480 500 L398 581 L353 536 L293 596 L338 642 L280 700 L347 767 L405 709 L451 754 L511 694 L466 649 L575 539 L575 71 L504 71 L504 36 L468 0 L231 0 L195 36 L195 71 L160 71 L125 106 L125 394 L160 429 Z M220 405 L220 95 L480 95 L480 405 L220 405 Z " />
<glyph glyph-name="Lslash" unicode="&#x141;" horiz-adv-x="700" d="M145 352 L145 700 L240 700 L240 447 L303 510 L363 450 L240 327 L240 95 L595 95 L595 0 L145 0 L145 232 L103 190 L43 250 L145 352 Z " />
<glyph glyph-name="lslash" unicode="&#x142;" horiz-adv-x="700" d="M200 250 L303 352 L303 605 L200 605 L200 700 L397 700 L397 447 L461 510 L521 450 L397 327 L397 95 L500 95 L500 0 L200 0 L200 95 L303 95 L303 232 L260 190 L200 250 Z " />
<glyph glyph-name="arrowleft" unicode="&#x2190;" horiz-adv-x="700" d="M195 364 L625 364 L625 279 L195 279 L367 106 L307 46 L75 279 L75 364 L307 596 L367 536 L195 364 Z " />
<glyph glyph-name="arrowup" unicode="&#x2191;" horiz-adv-x="700" d="M392 0 L307 0 L307 430 L135 257 L75 318 L307 550 L392 550 L625 318 L565 257 L392 430 L392 0 Z " />
<glyph glyph-name="arrowdown" unicode="&#x2193;" horiz-adv-x="700" d="M565 293 L625 232 L392 0 L307 0 L75 232 L135 293 L307 120 L307 550 L392 550 L392 120 L565 293 Z " />
<glyph glyph-name="uni2197" unicode="&#x2197;" horiz-adv-x="700" d="M185 51 L125 111 L429 415 L125 415 L125 500 L514 500 L574 440 L574 50 L489 50 L489 355 L185 51 Z " />
<glyph glyph-name="uni2198" unicode="&#x2198;" horiz-adv-x="700" d="M489 500 L574 500 L574 110 L514 50 L125 50 L125 135 L429 135 L125 439 L185 500 L489 195 L489 500 Z " />
<glyph glyph-name="uni2199" unicode="&#x2199;" horiz-adv-x="700" d="M514 500 L574 439 L270 135 L574 135 L574 50 L185 50 L125 110 L125 500 L210 500 L210 195 L514 500 Z " />
<glyph glyph-name="uni2196" unicode="&#x2196;" horiz-adv-x="700" d="M210 50 L125 50 L125 440 L185 500 L574 500 L574 415 L270 415 L574 111 L514 51 L210 355 L210 50 Z " />
<glyph glyph-name="uni02C9" unicode="&#x2c9;" horiz-adv-x="700" d="M224 680 L476 680 L476 585 L224 585 L224 680 Z " />
<glyph glyph-name="uni03BC" unicode="&#x3bc;" horiz-adv-x="700" d="M220 500 L220 95 L480 95 L480 500 L575 500 L575 71 L504 71 L504 36 L469 0 L220 0 L220 -200 L125 -200 L125 500 L220 500 Z " />
<glyph glyph-name="endash" unicode="&#x2013;" horiz-adv-x="700" d="M575 250 L125 250 L125 345 L575 345 L575 250 Z " />
<glyph glyph-name="emdash" unicode="&#x2014;" horiz-adv-x="700" d="M625 250 L75 250 L75 345 L625 345 L625 250 Z " />
<glyph glyph-name="dagger" unicode="&#x2020;" horiz-adv-x="700" d="M151 596 L303 596 L303 795 L398 795 L398 596 L549 596 L549 501 L398 501 L398 -95 L303 -95 L303 501 L151 501 L151 596 Z " />
<glyph glyph-name="daggerdbl" unicode="&#x2021;" horiz-adv-x="700" d="M398 95 L398 -95 L303 -95 L303 95 L150 95 L150 190 L303 190 L303 500 L150 500 L150 595 L303 595 L303 795 L398 795 L398 595 L550 595 L550 500 L398 500 L398 190 L550 190 L550 95 L398 95 Z " />
<glyph glyph-name="ellipsis" unicode="&#x2026;" horiz-adv-x="700" d="M515 130 L645 130 L645 0 L515 0 L515 130 Z M285 130 L415 130 L415 0 L285 0 L285 130 Z M55 0 L55 130 L185 130 L185 0 L55 0 Z " />
<glyph glyph-name="perthousand" unicode="&#x2030;" horiz-adv-x="700" d="M304 212 L328 212 L328 236 L352 260 L447 260 L471 236 L471 212 L493 212 L493 236 L517 260 L610 260 L635 236 L635 212 L658 212 L683 188 L683 72 L658 48 L635 48 L635 24 L610 0 L517 0 L493 24 L493 48 L471 48 L471 24 L447 0 L352 0 L328 24 L328 48 L304 48 L280 72 L280 188 L304 212 Z M43 0 L43 192 L398 547 L398 700 L493 700 L493 508 L138 153 L138 0 L43 0 Z M18 513 L18 628 L42 652 L66 652 L66 676 L90 700 L183 700 L207 676 L207 652 L231 652 L255 628 L255 513 L231 488 L207 488 L207 464 L183 440 L90 440 L66 464 L66 488 L42 488 L18 513 Z M365 85 L435 85 L435 175 L365 175 L365 85 Z M530 85 L598 85 L598 175 L530 175 L530 85 Z M103 525 L170 525 L170 615 L103 615 L103 525 Z " />
<glyph glyph-name="fraction" unicode="&#x2044;" horiz-adv-x="700" d="M480 547 L480 700 L575 700 L575 508 L220 153 L220 0 L125 0 L125 192 L480 547 Z " />
<glyph glyph-name="guilsinglleft" unicode="&#x2039;" horiz-adv-x="700" d="M325 298 L509 114 L442 47 L191 298 L442 549 L509 482 L325 298 Z " />
<glyph glyph-name="guilsinglright" unicode="&#x203a;" horiz-adv-x="700" d="M258 549 L509 298 L258 47 L191 114 L375 298 L191 482 L258 549 Z " />
<glyph glyph-name="bullet" unicode="&#x2022;" horiz-adv-x="700" d="M220 389 L244 413 L268 413 L268 437 L292 461 L408 461 L432 437 L432 413 L456 413 L480 389 L480 274 L456 249 L432 249 L432 225 L408 201 L292 201 L268 225 L268 249 L244 249 L220 274 L220 389 Z " />
<glyph glyph-name="minus" unicode="&#x2212;" horiz-adv-x="700" d="M550 250 L150 250 L150 345 L550 345 L550 250 Z " />
<glyph glyph-name="franc" unicode="&#x20a3;" horiz-adv-x="700" d="M145 217 L145 701 L595 701 L595 606 L240 606 L240 412 L548 412 L548 317 L240 317 L240 217 L421 217 L421 122 L240 122 L240 0 L145 0 L145 122 L66 122 L66 217 L145 217 Z " />
<glyph glyph-name="lira" unicode="&#x20a4;" horiz-adv-x="700" d="M125 222 L125 317 L220 317 L220 384 L125 384 L125 479 L220 479 L220 594 L255 629 L290 629 L290 665 L326 700 L575 700 L575 605 L315 605 L315 479 L527 479 L527 384 L315 384 L315 317 L527 317 L527 222 L315 222 L315 95 L575 95 L575 0 L125 0 L125 95 L220 95 L220 222 L125 222 Z " />
<glyph glyph-name="Euro" unicode="&#x20ac;" horiz-adv-x="700" d="M125 384 L125 479 L220 479 L220 594 L255 629 L290 629 L290 665 L326 700 L575 700 L575 605 L315 605 L315 479 L527 479 L527 384 L315 384 L315 317 L527 317 L527 222 L315 222 L315 95 L575 95 L575 0 L326 0 L290 36 L290 71 L255 71 L220 106 L220 222 L125 222 L125 317 L220 317 L220 384 L125 384 Z " />
<glyph glyph-name="acute" unicode="&#xb4;" horiz-adv-x="700" d="M438 742 L396 585 L301 585 L343 742 L438 742 Z " />
<glyph glyph-name="uni0326" unicode="&#x326;" horiz-adv-x="700" d="M438 -94 L397 -250 L302 -250 L343 -94 L438 -94 Z " />
<glyph glyph-name="oacute" unicode="&#xf3;" horiz-adv-x="700" d="M125 394 L160 429 L195 429 L195 465 L231 500 L468 500 L504 465 L504 429 L539 429 L575 394 L575 106 L539 71 L504 71 L504 36 L468 0 L231 0 L195 36 L195 71 L160 71 L125 106 L125 394 Z M220 95 L480 95 L480 405 L220 405 L220 95 Z M343 742 L438 742 L397 585 L302 585 L343 742 Z " />
<glyph glyph-name="Agrave" unicode="&#xc0;" horiz-adv-x="700" d="M125 594 L160 629 L195 629 L195 665 L231 700 L468 700 L504 665 L504 629 L539 629 L575 594 L575 0 L480 0 L480 289 L220 289 L220 0 L125 0 L125 594 Z M220 605 L220 384 L480 384 L480 605 L220 605 Z M262 942 L357 942 L398 785 L304 785 L262 942 Z " />
<glyph glyph-name="Aacute" unicode="&#xc1;" horiz-adv-x="700" d="M125 594 L160 629 L195 629 L195 665 L231 700 L468 700 L504 665 L504 629 L539 629 L575 594 L575 0 L480 0 L480 289 L220 289 L220 0 L125 0 L125 594 Z M220 605 L220 384 L480 384 L480 605 L220 605 Z M302 785 L343 942 L438 942 L397 785 L302 785 Z " />
<glyph glyph-name="Acircumflex" unicode="&#xc2;" horiz-adv-x="700" d="M125 594 L160 629 L195 629 L195 665 L231 700 L468 700 L504 665 L504 629 L539 629 L575 594 L575 0 L480 0 L480 289 L220 289 L220 0 L125 0 L125 594 Z M220 384 L480 384 L480 605 L220 605 L220 384 Z M279 915 L421 915 L491 785 L396 785 L350 871 L304 785 L209 785 L279 915 Z " />
<glyph glyph-name="Atilde" unicode="&#xc3;" horiz-adv-x="700" d="M125 594 L160 629 L195 629 L195 665 L231 700 L468 700 L504 665 L504 629 L539 629 L575 594 L575 0 L480 0 L480 289 L220 289 L220 0 L125 0 L125 594 Z M220 384 L480 384 L480 605 L220 605 L220 384 Z M231 886 L231 913 L259 941 L304 941 L332 913 L332 886 L387 886 L387 830 L450 830 L450 911 L525 911 L525 810 L469 810 L469 783 L441 755 L396 755 L368 783 L368 810 L313 810 L313 866 L250 866 L250 785 L175 785 L175 886 L231 886 Z " />
<glyph glyph-name="Adieresis" unicode="&#xc4;" horiz-adv-x="700" d="M125 594 L160 629 L195 629 L195 665 L231 700 L468 700 L504 665 L504 629 L539 629 L575 594 L575 0 L480 0 L480 289 L220 289 L220 0 L125 0 L125 594 Z M220 384 L480 384 L480 605 L220 605 L220 384 Z M476 880 L476 785 L381 785 L381 880 L476 880 Z M224 880 L319 880 L319 785 L224 785 L224 880 Z " />
<glyph glyph-name="Aring" unicode="&#xc5;" horiz-adv-x="700" d="M125 594 L160 629 L195 629 L195 665 L231 700 L468 700 L504 665 L504 629 L539 629 L575 594 L575 0 L480 0 L480 289 L220 289 L220 0 L125 0 L125 594 Z M220 384 L480 384 L480 605 L220 605 L220 384 Z M238 841 L266 869 L293 869 L293 897 L321 925 L379 925 L407 897 L407 869 L435 869 L463 841 L463 784 L435 756 L407 756 L407 728 L379 700 L321 700 L293 728 L293 756 L266 756 L238 784 L238 841 Z M313 775 L388 775 L388 850 L313 850 L313 775 Z " />
<glyph glyph-name="Egrave" unicode="&#xc8;" horiz-adv-x="700" d="M125 700 L575 700 L575 605 L220 605 L220 412 L527 412 L527 317 L220 317 L220 95 L575 95 L575 0 L125 0 L125 700 Z M282 942 L377 942 L418 785 L324 785 L282 942 Z " />
<glyph glyph-name="Eacute" unicode="&#xc9;" horiz-adv-x="700" d="M125 700 L575 700 L575 605 L220 605 L220 412 L527 412 L527 317 L220 317 L220 95 L575 95 L575 0 L125 0 L125 700 Z M292 785 L333 942 L428 942 L387 785 L292 785 Z " />
<glyph glyph-name="Ecircumflex" unicode="&#xca;" horiz-adv-x="700" d="M125 700 L575 700 L575 605 L220 605 L220 412 L527 412 L527 317 L220 317 L220 95 L575 95 L575 0 L125 0 L125 700 Z M279 915 L421 915 L491 785 L396 785 L350 871 L304 785 L209 785 L279 915 Z " />
<glyph glyph-name="Edieresis" unicode="&#xcb;" horiz-adv-x="700" d="M125 700 L575 700 L575 605 L220 605 L220 412 L527 412 L527 317 L220 317 L220 95 L575 95 L575 0 L125 0 L125 700 Z M476 880 L476 785 L381 785 L381 880 L476 880 Z M224 880 L319 880 L319 785 L224 785 L224 880 Z " />
<glyph glyph-name="Igrave" unicode="&#xcc;" horiz-adv-x="700" d="M200 95 L302 95 L302 605 L200 605 L200 700 L500 700 L500 605 L397 605 L397 95 L500 95 L500 0 L200 0 L200 95 Z M262 942 L357 942 L398 785 L304 785 L262 942 Z " />
<glyph glyph-name="Iacute" unicode="&#xcd;" horiz-adv-x="700" d="M200 700 L500 700 L500 605 L397 605 L397 95 L500 95 L500 0 L200 0 L200 95 L302 95 L302 605 L200 605 L200 700 Z M302 785 L343 942 L438 942 L397 785 L302 785 Z " />
<glyph glyph-name="Icircumflex" unicode="&#xce;" horiz-adv-x="700" d="M200 605 L200 700 L500 700 L500 605 L397 605 L397 95 L500 95 L500 0 L200 0 L200 95 L302 95 L302 605 L200 605 Z M279 915 L421 915 L491 785 L396 785 L350 871 L304 785 L209 785 L279 915 Z " />
<glyph glyph-name="Idieresis" unicode="&#xcf;" horiz-adv-x="700" d="M200 605 L200 700 L500 700 L500 605 L397 605 L397 95 L500 95 L500 0 L200 0 L200 95 L302 95 L302 605 L200 605 Z M476 880 L476 785 L381 785 L381 880 L476 880 Z M224 880 L319 880 L319 785 L224 785 L224 880 Z " />
<glyph glyph-name="Ntilde" unicode="&#xd1;" horiz-adv-x="700" d="M125 700 L238 700 L480 458 L480 700 L575 700 L575 0 L480 0 L480 375 L429 375 L220 584 L220 0 L125 0 L125 700 Z M231 886 L231 913 L259 941 L304 941 L332 913 L332 886 L387 886 L387 830 L450 830 L450 911 L525 911 L525 810 L469 810 L469 783 L441 755 L396 755 L368 783 L368 810 L313 810 L313 866 L250 866 L250 785 L175 785 L175 886 L231 886 Z " />
<glyph glyph-name="Ograve" unicode="&#xd2;" horiz-adv-x="700" d="M160 629 L195 629 L195 665 L231 700 L468 700 L504 665 L504 629 L539 629 L575 594 L575 106 L539 71 L504 71 L504 36 L468 0 L231 0 L195 36 L195 71 L160 71 L125 106 L125 594 L160 629 Z M480 95 L480 605 L220 605 L220 95 L480 95 Z M357 942 L398 785 L304 785 L262 942 L357 942 Z " />
<glyph glyph-name="Oacute" unicode="&#xd3;" horiz-adv-x="700" d="M160 629 L195 629 L195 665 L231 700 L468 700 L504 665 L504 629 L539 629 L575 594 L575 106 L539 71 L504 71 L504 36 L468 0 L231 0 L195 36 L195 71 L160 71 L125 106 L125 594 L160 629 Z M220 95 L480 95 L480 605 L220 605 L220 95 Z M302 785 L343 942 L438 942 L397 785 L302 785 Z " />
<glyph glyph-name="Ocircumflex" unicode="&#xd4;" horiz-adv-x="700" d="M125 106 L125 594 L160 629 L195 629 L195 665 L231 700 L468 700 L504 665 L504 629 L539 629 L575 594 L575 106 L539 71 L504 71 L504 36 L468 0 L231 0 L195 36 L195 71 L160 71 L125 106 Z M480 95 L480 605 L220 605 L220 95 L480 95 Z M279 915 L421 915 L491 785 L396 785 L350 871 L304 785 L209 785 L279 915 Z " />
<glyph glyph-name="Otilde" unicode="&#xd5;" horiz-adv-x="700" d="M125 106 L125 594 L160 629 L195 629 L195 665 L231 700 L468 700 L504 665 L504 629 L539 629 L575 594 L575 106 L539 71 L504 71 L504 36 L468 0 L231 0 L195 36 L195 71 L160 71 L125 106 Z M480 95 L480 605 L220 605 L220 95 L480 95 Z M231 886 L231 913 L259 941 L304 941 L332 913 L332 886 L387 886 L387 830 L450 830 L450 911 L525 911 L525 810 L469 810 L469 783 L441 755 L396 755 L368 783 L368 810 L313 810 L313 866 L250 866 L250 785 L175 785 L175 886 L231 886 Z " />
<glyph glyph-name="Odieresis" unicode="&#xd6;" horiz-adv-x="700" d="M125 106 L125 594 L160 629 L195 629 L195 665 L231 700 L468 700 L504 665 L504 629 L539 629 L575 594 L575 106 L539 71 L504 71 L504 36 L468 0 L231 0 L195 36 L195 71 L160 71 L125 106 Z M480 95 L480 605 L220 605 L220 95 L480 95 Z M476 880 L476 785 L381 785 L381 880 L476 880 Z M224 880 L319 880 L319 785 L224 785 L224 880 Z " />
<glyph glyph-name="Ugrave" unicode="&#xd9;" horiz-adv-x="700" d="M125 106 L125 700 L220 700 L220 95 L480 95 L480 700 L575 700 L575 106 L539 71 L504 71 L504 36 L468 0 L231 0 L195 36 L195 71 L160 71 L125 106 Z M367 942 L408 785 L314 785 L272 942 L367 942 Z " />
<glyph glyph-name="Uacute" unicode="&#xda;" horiz-adv-x="700" d="M125 106 L125 700 L220 700 L220 95 L480 95 L480 700 L575 700 L575 106 L539 71 L504 71 L504 36 L468 0 L231 0 L195 36 L195 71 L160 71 L125 106 Z M292 785 L333 942 L428 942 L387 785 L292 785 Z " />
<glyph glyph-name="Ucircumflex" unicode="&#xdb;" horiz-adv-x="700" d="M220 700 L220 95 L480 95 L480 700 L575 700 L575 106 L539 71 L504 71 L504 36 L468 0 L231 0 L195 36 L195 71 L160 71 L125 106 L125 700 L220 700 Z M279 915 L421 915 L491 785 L396 785 L350 871 L304 785 L209 785 L279 915 Z " />
<glyph glyph-name="Udieresis" unicode="&#xdc;" horiz-adv-x="700" d="M220 700 L220 95 L480 95 L480 700 L575 700 L575 106 L539 71 L504 71 L504 36 L468 0 L231 0 L195 36 L195 71 L160 71 L125 106 L125 700 L220 700 Z M476 880 L476 785 L381 785 L381 880 L476 880 Z M224 880 L319 880 L319 785 L224 785 L224 880 Z " />
<glyph glyph-name="Yacute" unicode="&#xdd;" horiz-adv-x="700" d="M125 530 L125 700 L220 700 L220 569 L326 462 L326 412 L373 412 L373 462 L480 569 L480 700 L575 700 L575 530 L432 387 L397 387 L397 0 L302 0 L302 387 L267 387 L125 530 Z M302 785 L343 942 L438 942 L397 785 L302 785 Z " />
<glyph glyph-name="iacute" unicode="&#xed;" horiz-adv-x="700" d="M397 500 L397 95 L500 95 L500 0 L200 0 L200 95 L302 95 L302 405 L200 405 L200 500 L397 500 Z M333 742 L428 742 L387 585 L292 585 L333 742 Z " />
<glyph glyph-name="igrave" unicode="&#xec;" horiz-adv-x="700" d="M397 500 L397 95 L500 95 L500 0 L200 0 L200 95 L302 95 L302 405 L200 405 L200 500 L397 500 Z M347 742 L388 585 L294 585 L252 742 L347 742 Z " />
<glyph glyph-name="edieresis" unicode="&#xeb;" horiz-adv-x="700" d="M160 429 L195 429 L195 465 L231 500 L468 500 L504 465 L504 429 L539 429 L575 394 L575 309 L539 273 L504 273 L504 238 L468 203 L220 203 L220 95 L480 95 L480 166 L575 166 L575 71 L504 71 L504 36 L468 0 L231 0 L195 36 L195 71 L160 71 L125 106 L125 394 L160 429 Z M220 298 L480 298 L480 405 L220 405 L220 298 Z M476 680 L476 585 L381 585 L381 680 L476 680 Z M224 680 L319 680 L319 585 L224 585 L224 680 Z " />
<glyph glyph-name="ecircumflex" unicode="&#xea;" horiz-adv-x="700" d="M160 429 L195 429 L195 465 L231 500 L468 500 L504 465 L504 429 L539 429 L575 394 L575 309 L539 273 L504 273 L504 238 L468 203 L220 203 L220 95 L480 95 L480 166 L575 166 L575 71 L504 71 L504 36 L468 0 L231 0 L195 36 L195 71 L160 71 L125 106 L125 394 L160 429 Z M220 298 L480 298 L480 405 L220 405 L220 298 Z M279 715 L421 715 L491 585 L396 585 L350 671 L304 585 L209 585 L279 715 Z " />
<glyph glyph-name="eacute" unicode="&#xe9;" horiz-adv-x="700" d="M125 394 L160 429 L195 429 L195 465 L231 500 L468 500 L504 465 L504 429 L539 429 L575 394 L575 309 L539 273 L504 273 L504 238 L468 203 L220 203 L220 95 L480 95 L480 166 L575 166 L575 71 L504 71 L504 36 L468 0 L231 0 L195 36 L195 71 L160 71 L125 106 L125 394 Z M480 298 L480 405 L220 405 L220 298 L480 298 Z M302 585 L343 742 L438 742 L397 585 L302 585 Z " />
<glyph glyph-name="egrave" unicode="&#xe8;" horiz-adv-x="700" d="M125 394 L160 429 L195 429 L195 465 L231 500 L468 500 L504 465 L504 429 L539 429 L575 394 L575 309 L539 273 L504 273 L504 238 L468 203 L220 203 L220 95 L480 95 L480 166 L575 166 L575 71 L504 71 L504 36 L468 0 L231 0 L195 36 L195 71 L160 71 L125 106 L125 394 Z M480 298 L480 405 L220 405 L220 298 L480 298 Z M262 742 L357 742 L398 585 L304 585 L262 742 Z " />
<glyph glyph-name="aring" unicode="&#xe5;" horiz-adv-x="700" d="M110 191 L145 226 L180 226 L180 262 L216 297 L465 297 L465 405 L205 405 L205 334 L110 334 L110 429 L180 429 L180 464 L216 500 L453 500 L489 464 L489 429 L524 429 L560 393 L560 95 L630 95 L630 0 L535 0 L535 70 L489 70 L489 35 L453 0 L216 0 L180 35 L180 70 L145 70 L110 106 L110 191 Z M205 95 L465 95 L465 202 L205 202 L205 95 Z M238 641 L266 669 L293 669 L293 697 L321 725 L379 725 L407 697 L407 669 L435 669 L463 641 L463 584 L435 556 L407 556 L407 528 L379 500 L321 500 L293 528 L293 556 L266 556 L238 584 L238 641 Z M313 575 L388 575 L388 650 L313 650 L313 575 Z " />
<glyph glyph-name="adieresis" unicode="&#xe4;" horiz-adv-x="700" d="M110 191 L145 226 L180 226 L180 262 L216 297 L465 297 L465 405 L205 405 L205 334 L110 334 L110 429 L180 429 L180 464 L216 500 L453 500 L489 464 L489 429 L524 429 L560 393 L560 95 L630 95 L630 0 L535 0 L535 70 L489 70 L489 35 L453 0 L216 0 L180 35 L180 70 L145 70 L110 106 L110 191 Z M205 95 L465 95 L465 202 L205 202 L205 95 Z M476 680 L476 585 L381 585 L381 680 L476 680 Z M224 680 L319 680 L319 585 L224 585 L224 680 Z " />
<glyph glyph-name="atilde" unicode="&#xe3;" horiz-adv-x="700" d="M110 191 L145 226 L180 226 L180 262 L216 297 L465 297 L465 405 L205 405 L205 334 L110 334 L110 429 L180 429 L180 464 L216 500 L453 500 L489 464 L489 429 L524 429 L560 393 L560 95 L630 95 L630 0 L535 0 L535 70 L489 70 L489 35 L453 0 L216 0 L180 35 L180 70 L145 70 L110 106 L110 191 Z M205 95 L465 95 L465 202 L205 202 L205 95 Z M231 686 L231 713 L259 741 L304 741 L332 713 L332 686 L387 686 L387 630 L450 630 L450 711 L525 711 L525 610 L469 610 L469 583 L441 555 L396 555 L368 583 L368 610 L313 610 L313 666 L250 666 L250 585 L175 585 L175 686 L231 686 Z " />
<glyph glyph-name="acircumflex" unicode="&#xe2;" horiz-adv-x="700" d="M110 191 L145 226 L180 226 L180 262 L216 297 L465 297 L465 405 L205 405 L205 334 L110 334 L110 429 L180 429 L180 464 L216 500 L453 500 L489 464 L489 429 L524 429 L560 393 L560 95 L630 95 L630 0 L535 0 L535 70 L489 70 L489 35 L453 0 L216 0 L180 35 L180 70 L145 70 L110 106 L110 191 Z M205 95 L465 95 L465 202 L205 202 L205 95 Z M279 715 L421 715 L491 585 L396 585 L350 671 L304 585 L209 585 L279 715 Z " />
<glyph glyph-name="aacute" unicode="&#xe1;" horiz-adv-x="700" d="M180 429 L180 464 L216 500 L453 500 L489 464 L489 429 L524 429 L560 393 L560 95 L630 95 L630 0 L535 0 L535 70 L489 70 L489 35 L453 0 L216 0 L180 35 L180 70 L145 70 L110 106 L110 191 L145 226 L180 226 L180 262 L216 297 L465 297 L465 405 L205 405 L205 334 L110 334 L110 429 L180 429 Z M205 202 L205 95 L465 95 L465 202 L205 202 Z M343 742 L438 742 L397 585 L302 585 L343 742 Z " />
<glyph glyph-name="agrave" unicode="&#xe0;" horiz-adv-x="700" d="M110 191 L145 226 L180 226 L180 262 L216 297 L465 297 L465 405 L205 405 L205 334 L110 334 L110 429 L180 429 L180 464 L216 500 L453 500 L489 464 L489 429 L524 429 L560 393 L560 95 L630 95 L630 0 L535 0 L535 70 L489 70 L489 35 L453 0 L216 0 L180 35 L180 70 L145 70 L110 106 L110 191 Z M465 95 L465 202 L205 202 L205 95 L465 95 Z M357 742 L398 585 L304 585 L262 742 L357 742 Z " />
<glyph glyph-name="icircumflex" unicode="&#xee;" horiz-adv-x="700" d="M397 500 L397 95 L500 95 L500 0 L200 0 L200 95 L302 95 L302 405 L200 405 L200 500 L397 500 Z M279 715 L421 715 L491 585 L396 585 L350 671 L304 585 L209 585 L279 715 Z " />
<glyph glyph-name="idieresis" unicode="&#xef;" horiz-adv-x="700" d="M397 500 L397 95 L500 95 L500 0 L200 0 L200 95 L302 95 L302 405 L200 405 L200 500 L397 500 Z M476 680 L476 585 L381 585 L381 680 L476 680 Z M224 680 L319 680 L319 585 L224 585 L224 680 Z " />
<glyph glyph-name="ntilde" unicode="&#xf1;" horiz-adv-x="700" d="M195 429 L195 465 L231 500 L468 500 L504 465 L504 429 L539 429 L575 394 L575 0 L480 0 L480 405 L220 405 L220 0 L125 0 L125 429 L195 429 Z M231 686 L231 713 L259 741 L304 741 L332 713 L332 686 L387 686 L387 630 L450 630 L450 711 L525 711 L525 610 L469 610 L469 583 L441 555 L396 555 L368 583 L368 610 L313 610 L313 666 L250 666 L250 585 L175 585 L175 686 L231 686 Z " />
<glyph glyph-name="ograve" unicode="&#xf2;" horiz-adv-x="700" d="M160 429 L195 429 L195 465 L231 500 L468 500 L504 465 L504 429 L539 429 L575 394 L575 106 L539 71 L504 71 L504 36 L468 0 L231 0 L195 36 L195 71 L160 71 L125 106 L125 394 L160 429 Z M220 95 L480 95 L480 405 L220 405 L220 95 Z M357 742 L398 585 L304 585 L262 742 L357 742 Z " />
<glyph glyph-name="ocircumflex" unicode="&#xf4;" horiz-adv-x="700" d="M160 429 L195 429 L195 465 L231 500 L468 500 L504 465 L504 429 L539 429 L575 394 L575 106 L539 71 L504 71 L504 36 L468 0 L231 0 L195 36 L195 71 L160 71 L125 106 L125 394 L160 429 Z M220 405 L220 95 L480 95 L480 405 L220 405 Z M279 715 L421 715 L491 585 L396 585 L350 671 L304 585 L209 585 L279 715 Z " />
<glyph glyph-name="otilde" unicode="&#xf5;" horiz-adv-x="700" d="M160 429 L195 429 L195 465 L231 500 L468 500 L504 465 L504 429 L539 429 L575 394 L575 106 L539 71 L504 71 L504 36 L468 0 L231 0 L195 36 L195 71 L160 71 L125 106 L125 394 L160 429 Z M220 405 L220 95 L480 95 L480 405 L220 405 Z M231 686 L231 713 L259 741 L304 741 L332 713 L332 686 L387 686 L387 630 L450 630 L450 711 L525 711 L525 610 L469 610 L469 583 L441 555 L396 555 L368 583 L368 610 L313 610 L313 666 L250 666 L250 585 L175 585 L175 686 L231 686 Z " />
<glyph glyph-name="odieresis" unicode="&#xf6;" horiz-adv-x="700" d="M160 429 L195 429 L195 465 L231 500 L468 500 L504 465 L504 429 L539 429 L575 394 L575 106 L539 71 L504 71 L504 36 L468 0 L231 0 L195 36 L195 71 L160 71 L125 106 L125 394 L160 429 Z M220 405 L220 95 L480 95 L480 405 L220 405 Z M476 680 L476 585 L381 585 L381 680 L476 680 Z M224 680 L319 680 L319 585 L224 585 L224 680 Z " />
<glyph glyph-name="ugrave" unicode="&#xf9;" horiz-adv-x="700" d="M125 106 L125 500 L220 500 L220 95 L480 95 L480 500 L575 500 L575 71 L504 71 L504 36 L468 0 L231 0 L195 36 L195 71 L160 71 L125 106 Z M367 742 L408 585 L314 585 L272 742 L367 742 Z " />
<glyph glyph-name="uacute" unicode="&#xfa;" horiz-adv-x="700" d="M125 106 L125 500 L220 500 L220 95 L480 95 L480 500 L575 500 L575 71 L504 71 L504 36 L468 0 L231 0 L195 36 L195 71 L160 71 L125 106 Z M333 742 L428 742 L387 585 L292 585 L333 742 Z " />
<glyph glyph-name="ucircumflex" unicode="&#xfb;" horiz-adv-x="700" d="M125 106 L125 500 L220 500 L220 95 L480 95 L480 500 L575 500 L575 71 L504 71 L504 36 L468 0 L231 0 L195 36 L195 71 L160 71 L125 106 Z M279 715 L421 715 L491 585 L396 585 L350 671 L304 585 L209 585 L279 715 Z " />
<glyph glyph-name="udieresis" unicode="&#xfc;" horiz-adv-x="700" d="M125 106 L125 500 L220 500 L220 95 L480 95 L480 500 L575 500 L575 71 L504 71 L504 36 L468 0 L231 0 L195 36 L195 71 L160 71 L125 106 Z M476 680 L476 585 L381 585 L381 680 L476 680 Z M224 680 L319 680 L319 585 L224 585 L224 680 Z " />
<glyph glyph-name="yacute" unicode="&#xfd;" horiz-adv-x="700" d="M125 -129 L125 -34 L220 -34 L220 -105 L480 -105 L480 0 L231 0 L195 36 L195 71 L160 71 L125 106 L125 500 L220 500 L220 95 L480 95 L480 500 L575 500 L575 -129 L504 -129 L504 -164 L468 -200 L231 -200 L195 -164 L195 -129 L125 -129 Z M333 742 L428 742 L387 585 L292 585 L333 742 Z " />
<glyph glyph-name="ccaron" unicode="&#x10d;" horiz-adv-x="700" d="M125 394 L160 429 L195 429 L195 465 L231 500 L468 500 L504 465 L504 429 L575 429 L575 334 L480 334 L480 405 L220 405 L220 95 L480 95 L480 166 L575 166 L575 71 L504 71 L504 36 L468 0 L231 0 L195 36 L195 71 L160 71 L125 106 L125 394 Z M209 715 L304 715 L350 630 L396 715 L491 715 L421 585 L279 585 L209 715 Z " />
<glyph glyph-name="Ccaron" unicode="&#x10c;" horiz-adv-x="700" d="M125 594 L160 629 L195 629 L195 665 L231 700 L468 700 L504 665 L504 629 L575 629 L575 490 L480 490 L480 605 L220 605 L220 95 L480 95 L480 210 L575 210 L575 71 L504 71 L504 36 L468 0 L231 0 L195 36 L195 71 L160 71 L125 106 L125 594 Z M209 915 L304 915 L350 830 L396 915 L491 915 L421 785 L279 785 L209 915 Z " />
<glyph glyph-name="cdotaccent" unicode="&#x10b;" horiz-adv-x="700" d="M125 394 L160 429 L195 429 L195 465 L231 500 L468 500 L504 465 L504 429 L575 429 L575 334 L480 334 L480 405 L220 405 L220 95 L480 95 L480 166 L575 166 L575 71 L504 71 L504 36 L468 0 L231 0 L195 36 L195 71 L160 71 L125 106 L125 394 Z M302 680 L397 680 L397 585 L302 585 L302 680 Z " />
<glyph glyph-name="Cdotaccent" unicode="&#x10a;" horiz-adv-x="700" d="M125 594 L160 629 L195 629 L195 665 L231 700 L468 700 L504 665 L504 629 L575 629 L575 490 L480 490 L480 605 L220 605 L220 95 L480 95 L480 210 L575 210 L575 71 L504 71 L504 36 L468 0 L231 0 L195 36 L195 71 L160 71 L125 106 L125 594 Z M302 880 L397 880 L397 785 L302 785 L302 880 Z " />
<glyph glyph-name="ccircumflex" unicode="&#x109;" horiz-adv-x="700" d="M125 394 L160 429 L195 429 L195 465 L231 500 L468 500 L504 465 L504 429 L575 429 L575 334 L480 334 L480 405 L220 405 L220 95 L480 95 L480 166 L575 166 L575 71 L504 71 L504 36 L468 0 L231 0 L195 36 L195 71 L160 71 L125 106 L125 394 Z M279 715 L421 715 L491 585 L396 585 L350 671 L304 585 L209 585 L279 715 Z " />
<glyph glyph-name="Ccircumflex" unicode="&#x108;" horiz-adv-x="700" d="M125 594 L160 629 L195 629 L195 665 L231 700 L468 700 L504 665 L504 629 L575 629 L575 490 L480 490 L480 605 L220 605 L220 95 L480 95 L480 210 L575 210 L575 71 L504 71 L504 36 L468 0 L231 0 L195 36 L195 71 L160 71 L125 106 L125 594 Z M279 915 L421 915 L491 785 L396 785 L350 871 L304 785 L209 785 L279 915 Z " />
<glyph glyph-name="cacute" unicode="&#x107;" horiz-adv-x="700" d="M160 429 L195 429 L195 465 L231 500 L468 500 L504 465 L504 429 L575 429 L575 334 L480 334 L480 405 L220 405 L220 95 L480 95 L480 166 L575 166 L575 71 L504 71 L504 36 L468 0 L231 0 L195 36 L195 71 L160 71 L125 106 L125 394 L160 429 Z M343 742 L438 742 L397 585 L302 585 L343 742 Z " />
<glyph glyph-name="Cacute" unicode="&#x106;" horiz-adv-x="700" d="M160 629 L195 629 L195 665 L231 700 L468 700 L504 665 L504 629 L575 629 L575 490 L480 490 L480 605 L220 605 L220 95 L480 95 L480 210 L575 210 L575 71 L504 71 L504 36 L468 0 L231 0 L195 36 L195 71 L160 71 L125 106 L125 594 L160 629 Z M343 942 L438 942 L397 785 L302 785 L343 942 Z " />
<glyph glyph-name="abreve" unicode="&#x103;" horiz-adv-x="700" d="M110 191 L145 226 L180 226 L180 262 L216 297 L465 297 L465 405 L205 405 L205 334 L110 334 L110 429 L180 429 L180 464 L216 500 L453 500 L489 464 L489 429 L524 429 L560 393 L560 95 L630 95 L630 0 L535 0 L535 70 L489 70 L489 35 L453 0 L216 0 L180 35 L180 70 L145 70 L110 106 L110 191 Z M205 95 L465 95 L465 202 L205 202 L205 95 Z M230 725 L310 725 L310 665 L390 665 L390 725 L470 725 L470 675 L440 645 L411 645 L411 615 L381 585 L320 585 L290 615 L290 645 L260 645 L230 675 L230 725 Z " />
<glyph glyph-name="Abreve" unicode="&#x102;" horiz-adv-x="700" d="M125 594 L160 629 L195 629 L195 665 L231 700 L468 700 L504 665 L504 629 L539 629 L575 594 L575 0 L480 0 L480 289 L220 289 L220 0 L125 0 L125 594 Z M220 384 L480 384 L480 605 L220 605 L220 384 Z M230 925 L310 925 L310 865 L390 865 L390 925 L470 925 L470 875 L440 845 L411 845 L411 815 L381 785 L320 785 L290 815 L290 845 L260 845 L230 875 L230 925 Z " />
<glyph glyph-name="amacron" unicode="&#x101;" horiz-adv-x="700" d="M110 191 L145 226 L180 226 L180 262 L216 297 L465 297 L465 405 L205 405 L205 334 L110 334 L110 429 L180 429 L180 464 L216 500 L453 500 L489 464 L489 429 L524 429 L560 393 L560 95 L630 95 L630 0 L535 0 L535 70 L489 70 L489 35 L453 0 L216 0 L180 35 L180 70 L145 70 L110 106 L110 191 Z M205 95 L465 95 L465 202 L205 202 L205 95 Z M224 680 L476 680 L476 585 L224 585 L224 680 Z " />
<glyph glyph-name="Amacron" unicode="&#x100;" horiz-adv-x="700" d="M125 594 L160 629 L195 629 L195 665 L231 700 L468 700 L504 665 L504 629 L539 629 L575 594 L575 0 L480 0 L480 289 L220 289 L220 0 L125 0 L125 594 Z M220 384 L480 384 L480 605 L220 605 L220 384 Z M224 880 L476 880 L476 785 L224 785 L224 880 Z " />
<glyph glyph-name="ydieresis" unicode="&#xff;" horiz-adv-x="700" d="M125 -129 L125 -34 L220 -34 L220 -105 L480 -105 L480 0 L231 0 L195 36 L195 71 L160 71 L125 106 L125 500 L220 500 L220 95 L480 95 L480 500 L575 500 L575 -129 L504 -129 L504 -164 L468 -200 L231 -200 L195 -164 L195 -129 L125 -129 Z M476 680 L476 585 L381 585 L381 680 L476 680 Z M224 680 L319 680 L319 585 L224 585 L224 680 Z " />
<glyph glyph-name="Dcaron" unicode="&#x10e;" horiz-adv-x="700" d="M125 0 L125 700 L468 700 L504 665 L504 629 L539 629 L575 594 L575 106 L539 71 L504 71 L504 36 L468 0 L125 0 Z M220 605 L220 95 L480 95 L480 605 L220 605 Z M209 915 L304 915 L350 830 L396 915 L491 915 L421 785 L279 785 L209 915 Z " />
<glyph glyph-name="Emacron" unicode="&#x112;" horiz-adv-x="700" d="M125 700 L575 700 L575 605 L220 605 L220 412 L527 412 L527 317 L220 317 L220 95 L575 95 L575 0 L125 0 L125 700 Z M224 880 L476 880 L476 785 L224 785 L224 880 Z " />
<glyph glyph-name="emacron" unicode="&#x113;" horiz-adv-x="700" d="M160 429 L195 429 L195 465 L231 500 L468 500 L504 465 L504 429 L539 429 L575 394 L575 309 L539 273 L504 273 L504 238 L468 203 L220 203 L220 95 L480 95 L480 166 L575 166 L575 71 L504 71 L504 36 L468 0 L231 0 L195 36 L195 71 L160 71 L125 106 L125 394 L160 429 Z M220 298 L480 298 L480 405 L220 405 L220 298 Z M224 680 L476 680 L476 585 L224 585 L224 680 Z " />
<glyph glyph-name="Ebreve" unicode="&#x114;" horiz-adv-x="700" d="M125 700 L575 700 L575 605 L220 605 L220 412 L527 412 L527 317 L220 317 L220 95 L575 95 L575 0 L125 0 L125 700 Z M230 925 L310 925 L310 865 L390 865 L390 925 L470 925 L470 875 L440 845 L411 845 L411 815 L381 785 L320 785 L290 815 L290 845 L260 845 L230 875 L230 925 Z " />
<glyph glyph-name="ebreve" unicode="&#x115;" horiz-adv-x="700" d="M160 429 L195 429 L195 465 L231 500 L468 500 L504 465 L504 429 L539 429 L575 394 L575 309 L539 273 L504 273 L504 238 L468 203 L220 203 L220 95 L480 95 L480 166 L575 166 L575 71 L504 71 L504 36 L468 0 L231 0 L195 36 L195 71 L160 71 L125 106 L125 394 L160 429 Z M220 298 L480 298 L480 405 L220 405 L220 298 Z M230 725 L310 725 L310 665 L390 665 L390 725 L470 725 L470 675 L440 645 L411 645 L411 615 L381 585 L320 585 L290 615 L290 645 L260 645 L230 675 L230 725 Z " />
<glyph glyph-name="Edotaccent" unicode="&#x116;" horiz-adv-x="700" d="M125 700 L575 700 L575 605 L220 605 L220 412 L527 412 L527 317 L220 317 L220 95 L575 95 L575 0 L125 0 L125 700 Z M302 880 L397 880 L397 785 L302 785 L302 880 Z " />
<glyph glyph-name="edotaccent" unicode="&#x117;" horiz-adv-x="700" d="M160 429 L195 429 L195 465 L231 500 L468 500 L504 465 L504 429 L539 429 L575 394 L575 309 L539 273 L504 273 L504 238 L468 203 L220 203 L220 95 L480 95 L480 166 L575 166 L575 71 L504 71 L504 36 L468 0 L231 0 L195 36 L195 71 L160 71 L125 106 L125 394 L160 429 Z M220 298 L480 298 L480 405 L220 405 L220 298 Z M302 680 L397 680 L397 585 L302 585 L302 680 Z " />
<glyph glyph-name="Ecaron" unicode="&#x11a;" horiz-adv-x="700" d="M125 700 L575 700 L575 605 L220 605 L220 412 L527 412 L527 317 L220 317 L220 95 L575 95 L575 0 L125 0 L125 700 Z M209 915 L304 915 L350 830 L396 915 L491 915 L421 785 L279 785 L209 915 Z " />
<glyph glyph-name="ecaron" unicode="&#x11b;" horiz-adv-x="700" d="M160 429 L195 429 L195 465 L231 500 L468 500 L504 465 L504 429 L539 429 L575 394 L575 309 L539 273 L504 273 L504 238 L468 203 L220 203 L220 95 L480 95 L480 166 L575 166 L575 71 L504 71 L504 36 L468 0 L231 0 L195 36 L195 71 L160 71 L125 106 L125 394 L160 429 Z M220 298 L480 298 L480 405 L220 405 L220 298 Z M209 715 L304 715 L350 630 L396 715 L491 715 L421 585 L279 585 L209 715 Z " />
<glyph glyph-name="Gcircumflex" unicode="&#x11c;" horiz-adv-x="700" d="M125 594 L160 629 L195 629 L195 665 L231 700 L468 700 L504 665 L504 629 L575 629 L575 490 L480 490 L480 605 L220 605 L220 95 L480 95 L480 289 L350 289 L350 384 L575 384 L575 106 L539 71 L504 71 L504 36 L468 0 L231 0 L195 36 L195 71 L160 71 L125 106 L125 594 Z M279 915 L421 915 L491 785 L396 785 L350 871 L304 785 L209 785 L279 915 Z " />
<glyph glyph-name="gcircumflex" unicode="&#x11d;" horiz-adv-x="700" d="M114 273 L114 394 L150 430 L185 430 L185 465 L220 500 L408 500 L443 465 L443 430 L490 430 L490 500 L585 500 L585 405 L514 405 L514 273 L478 237 L443 237 L443 202 L408 166 L209 166 L209 95 L458 95 L493 60 L493 25 L528 25 L564 -11 L564 -94 L528 -129 L493 -129 L493 -164 L458 -200 L220 -200 L185 -164 L185 -129 L150 -129 L114 -94 L114 -11 L150 25 L185 25 L185 71 L150 71 L114 106 L114 155 L150 191 L185 191 L185 237 L150 237 L114 273 Z M419 261 L419 405 L209 405 L209 261 L419 261 Z M209 -105 L469 -105 L469 0 L209 0 L209 -105 Z M279 715 L421 715 L491 585 L396 585 L350 671 L304 585 L209 585 L279 715 Z " />
<glyph glyph-name="imacron" unicode="&#x12b;" horiz-adv-x="700" d="M397 500 L397 95 L500 95 L500 0 L200 0 L200 95 L302 95 L302 405 L200 405 L200 500 L397 500 Z M224 680 L476 680 L476 585 L224 585 L224 680 Z " />
<glyph glyph-name="Imacron" unicode="&#x12a;" horiz-adv-x="700" d="M200 605 L200 700 L500 700 L500 605 L397 605 L397 95 L500 95 L500 0 L200 0 L200 95 L302 95 L302 605 L200 605 Z M224 880 L476 880 L476 785 L224 785 L224 880 Z " />
<glyph glyph-name="itilde" unicode="&#x129;" horiz-adv-x="700" d="M397 500 L397 95 L500 95 L500 0 L200 0 L200 95 L302 95 L302 405 L200 405 L200 500 L397 500 Z M231 686 L231 713 L259 741 L304 741 L332 713 L332 686 L387 686 L387 630 L450 630 L450 711 L525 711 L525 610 L469 610 L469 583 L441 555 L396 555 L368 583 L368 610 L313 610 L313 666 L250 666 L250 585 L175 585 L175 686 L231 686 Z " />
<glyph glyph-name="Itilde" unicode="&#x128;" horiz-adv-x="700" d="M200 605 L200 700 L500 700 L500 605 L397 605 L397 95 L500 95 L500 0 L200 0 L200 95 L302 95 L302 605 L200 605 Z M231 886 L231 913 L259 941 L304 941 L332 913 L332 886 L387 886 L387 830 L450 830 L450 911 L525 911 L525 810 L469 810 L469 783 L441 755 L396 755 L368 783 L368 810 L313 810 L313 866 L250 866 L250 785 L175 785 L175 886 L231 886 Z " />
<glyph glyph-name="hcircumflex" unicode="&#x125;" horiz-adv-x="700" d="M125 700 L220 700 L220 500 L468 500 L504 465 L504 429 L539 429 L575 394 L575 0 L480 0 L480 405 L220 405 L220 0 L125 0 L125 700 Z M279 915 L421 915 L491 785 L396 785 L350 871 L304 785 L209 785 L279 915 Z " />
<glyph glyph-name="Hcircumflex" unicode="&#x124;" horiz-adv-x="700" d="M220 700 L220 412 L480 412 L480 700 L575 700 L575 0 L480 0 L480 317 L220 317 L220 0 L125 0 L125 700 L220 700 Z M279 915 L421 915 L491 785 L396 785 L350 871 L304 785 L209 785 L279 915 Z " />
<glyph glyph-name="gdotaccent" unicode="&#x121;" horiz-adv-x="700" d="M114 273 L114 394 L150 430 L185 430 L185 465 L220 500 L408 500 L443 465 L443 430 L490 430 L490 500 L585 500 L585 405 L514 405 L514 273 L478 237 L443 237 L443 202 L408 166 L209 166 L209 95 L458 95 L493 60 L493 25 L528 25 L564 -11 L564 -94 L528 -129 L493 -129 L493 -164 L458 -200 L220 -200 L185 -164 L185 -129 L150 -129 L114 -94 L114 -11 L150 25 L185 25 L185 71 L150 71 L114 106 L114 155 L150 191 L185 191 L185 237 L150 237 L114 273 Z M419 261 L419 405 L209 405 L209 261 L419 261 Z M209 -105 L469 -105 L469 0 L209 0 L209 -105 Z M302 680 L397 680 L397 585 L302 585 L302 680 Z " />
<glyph glyph-name="Gdotaccent" unicode="&#x120;" horiz-adv-x="700" d="M125 594 L160 629 L195 629 L195 665 L231 700 L468 700 L504 665 L504 629 L575 629 L575 490 L480 490 L480 605 L220 605 L220 95 L480 95 L480 289 L350 289 L350 384 L575 384 L575 106 L539 71 L504 71 L504 36 L468 0 L231 0 L195 36 L195 71 L160 71 L125 106 L125 594 Z M302 880 L397 880 L397 785 L302 785 L302 880 Z " />
<glyph glyph-name="gbreve" unicode="&#x11f;" horiz-adv-x="700" d="M114 273 L114 394 L150 430 L185 430 L185 465 L220 500 L408 500 L443 465 L443 430 L490 430 L490 500 L585 500 L585 405 L514 405 L514 273 L478 237 L443 237 L443 202 L408 166 L209 166 L209 95 L458 95 L493 60 L493 25 L528 25 L564 -11 L564 -94 L528 -129 L493 -129 L493 -164 L458 -200 L220 -200 L185 -164 L185 -129 L150 -129 L114 -94 L114 -11 L150 25 L185 25 L185 71 L150 71 L114 106 L114 155 L150 191 L185 191 L185 237 L150 237 L114 273 Z M419 261 L419 405 L209 405 L209 261 L419 261 Z M209 -105 L469 -105 L469 0 L209 0 L209 -105 Z M230 725 L310 725 L310 665 L390 665 L390 725 L470 725 L470 675 L440 645 L411 645 L411 615 L381 585 L320 585 L290 615 L290 645 L260 645 L230 675 L230 725 Z " />
<glyph glyph-name="Gbreve" unicode="&#x11e;" horiz-adv-x="700" d="M125 594 L160 629 L195 629 L195 665 L231 700 L468 700 L504 665 L504 629 L575 629 L575 490 L480 490 L480 605 L220 605 L220 95 L480 95 L480 289 L350 289 L350 384 L575 384 L575 106 L539 71 L504 71 L504 36 L468 0 L231 0 L195 36 L195 71 L160 71 L125 106 L125 594 Z M230 925 L310 925 L310 865 L390 865 L390 925 L470 925 L470 875 L440 845 L411 845 L411 815 L381 785 L320 785 L290 815 L290 845 L260 845 L230 875 L230 925 Z " />
<glyph glyph-name="Idot" unicode="&#x130;" horiz-adv-x="700" d="M200 605 L200 700 L500 700 L500 605 L397 605 L397 95 L500 95 L500 0 L200 0 L200 95 L302 95 L302 605 L200 605 Z M302 880 L397 880 L397 785 L302 785 L302 880 Z " />
<glyph glyph-name="Jcircumflex" unicode="&#x134;" horiz-adv-x="700" d="M125 71 L125 288 L220 288 L220 95 L480 95 L480 605 L220 605 L220 700 L575 700 L575 106 L539 71 L504 71 L504 36 L469 0 L231 0 L196 36 L196 71 L125 71 Z M279 915 L421 915 L491 785 L396 785 L350 871 L304 785 L209 785 L279 915 Z " />
<glyph glyph-name="jcircumflex" unicode="&#x135;" horiz-adv-x="700" d="M405 -105 L405 405 L200 405 L200 500 L500 500 L500 -94 L464 -129 L429 -129 L429 -200 L200 -200 L200 -105 L405 -105 Z M279 715 L421 715 L491 585 L396 585 L350 671 L304 585 L209 585 L279 715 Z " />
<glyph glyph-name="uni0122" unicode="&#x122;" horiz-adv-x="700" d="M160 629 L195 629 L195 665 L231 700 L468 700 L504 665 L504 629 L575 629 L575 490 L480 490 L480 605 L220 605 L220 95 L480 95 L480 289 L350 289 L350 384 L575 384 L575 106 L539 71 L504 71 L504 36 L468 0 L231 0 L195 36 L195 71 L160 71 L125 106 L125 594 L160 629 Z M360 -200 L265 -200 L300 -70 L395 -70 L360 -200 Z " />
<glyph glyph-name="uni0136" unicode="&#x136;" horiz-adv-x="700" d="M125 700 L220 700 L220 412 L324 412 L324 462 L480 617 L480 700 L575 700 L575 578 L384 387 L349 387 L349 341 L384 341 L575 150 L575 0 L480 0 L480 111 L324 266 L324 317 L220 317 L220 0 L125 0 L125 700 Z M300 -70 L395 -70 L360 -200 L265 -200 L300 -70 Z " />
<glyph glyph-name="uni0137" unicode="&#x137;" horiz-adv-x="700" d="M125 0 L125 700 L220 700 L220 207 L289 207 L289 258 L480 449 L480 500 L575 500 L575 410 L415 250 L575 91 L575 0 L480 0 L480 51 L348 183 L313 183 L313 112 L220 112 L220 0 L125 0 Z M300 -70 L395 -70 L360 -200 L265 -200 L300 -70 Z " />
<glyph glyph-name="Lacute" unicode="&#x139;" horiz-adv-x="700" d="M240 95 L595 95 L595 0 L145 0 L145 700 L240 700 L240 95 Z M418 942 L377 785 L282 785 L323 942 L418 942 Z " />
<glyph glyph-name="lacute" unicode="&#x13a;" horiz-adv-x="700" d="M397 700 L397 95 L500 95 L500 0 L200 0 L200 95 L303 95 L303 605 L200 605 L200 700 L397 700 Z M292 785 L333 942 L428 942 L387 785 L292 785 Z " />
<glyph glyph-name="uni013B" unicode="&#x13b;" horiz-adv-x="700" d="M240 95 L595 95 L595 0 L145 0 L145 700 L240 700 L240 95 Z M360 -200 L265 -200 L300 -70 L395 -70 L360 -200 Z " />
<glyph glyph-name="uni013C" unicode="&#x13c;" horiz-adv-x="700" d="M397 700 L397 95 L500 95 L500 0 L200 0 L200 95 L303 95 L303 605 L200 605 L200 700 L397 700 Z M265 -200 L300 -70 L395 -70 L360 -200 L265 -200 Z " />
<glyph glyph-name="Nacute" unicode="&#x143;" horiz-adv-x="700" d="M125 700 L238 700 L480 458 L480 700 L575 700 L575 0 L480 0 L480 375 L429 375 L220 584 L220 0 L125 0 L125 700 Z M343 942 L438 942 L397 785 L302 785 L343 942 Z " />
<glyph glyph-name="nacute" unicode="&#x144;" horiz-adv-x="700" d="M195 429 L195 465 L231 500 L468 500 L504 465 L504 429 L539 429 L575 394 L575 0 L480 0 L480 405 L220 405 L220 0 L125 0 L125 429 L195 429 Z M343 742 L438 742 L397 585 L302 585 L343 742 Z " />
<glyph glyph-name="uni0145" unicode="&#x145;" horiz-adv-x="700" d="M125 700 L238 700 L480 458 L480 700 L575 700 L575 0 L480 0 L480 375 L429 375 L220 584 L220 0 L125 0 L125 700 Z M265 -200 L300 -70 L395 -70 L360 -200 L265 -200 Z " />
<glyph glyph-name="uni0146" unicode="&#x146;" horiz-adv-x="700" d="M195 429 L195 465 L231 500 L468 500 L504 465 L504 429 L539 429 L575 394 L575 0 L480 0 L480 405 L220 405 L220 0 L125 0 L125 429 L195 429 Z M360 -200 L265 -200 L300 -70 L395 -70 L360 -200 Z " />
<glyph glyph-name="Ncaron" unicode="&#x147;" horiz-adv-x="700" d="M125 700 L238 700 L480 458 L480 700 L575 700 L575 0 L480 0 L480 375 L429 375 L220 584 L220 0 L125 0 L125 700 Z M209 915 L304 915 L350 830 L396 915 L491 915 L421 785 L279 785 L209 915 Z " />
<glyph glyph-name="ncaron" unicode="&#x148;" horiz-adv-x="700" d="M195 429 L195 465 L231 500 L468 500 L504 465 L504 429 L539 429 L575 394 L575 0 L480 0 L480 405 L220 405 L220 0 L125 0 L125 429 L195 429 Z M209 715 L304 715 L350 630 L396 715 L491 715 L421 585 L279 585 L209 715 Z " />
<glyph glyph-name="Omacron" unicode="&#x14c;" horiz-adv-x="700" d="M125 106 L125 594 L160 629 L195 629 L195 665 L231 700 L468 700 L504 665 L504 629 L539 629 L575 594 L575 106 L539 71 L504 71 L504 36 L468 0 L231 0 L195 36 L195 71 L160 71 L125 106 Z M480 95 L480 605 L220 605 L220 95 L480 95 Z M224 880 L476 880 L476 785 L224 785 L224 880 Z " />
<glyph glyph-name="omacron" unicode="&#x14d;" horiz-adv-x="700" d="M160 429 L195 429 L195 465 L231 500 L468 500 L504 465 L504 429 L539 429 L575 394 L575 106 L539 71 L504 71 L504 36 L468 0 L231 0 L195 36 L195 71 L160 71 L125 106 L125 394 L160 429 Z M220 405 L220 95 L480 95 L480 405 L220 405 Z M224 680 L476 680 L476 585 L224 585 L224 680 Z " />
<glyph glyph-name="Obreve" unicode="&#x14e;" horiz-adv-x="700" d="M125 106 L125 594 L160 629 L195 629 L195 665 L231 700 L468 700 L504 665 L504 629 L539 629 L575 594 L575 106 L539 71 L504 71 L504 36 L468 0 L231 0 L195 36 L195 71 L160 71 L125 106 Z M480 95 L480 605 L220 605 L220 95 L480 95 Z M230 925 L310 925 L310 865 L390 865 L390 925 L470 925 L470 875 L440 845 L411 845 L411 815 L381 785 L320 785 L290 815 L290 845 L260 845 L230 875 L230 925 Z " />
<glyph glyph-name="obreve" unicode="&#x14f;" horiz-adv-x="700" d="M160 429 L195 429 L195 465 L231 500 L468 500 L504 465 L504 429 L539 429 L575 394 L575 106 L539 71 L504 71 L504 36 L468 0 L231 0 L195 36 L195 71 L160 71 L125 106 L125 394 L160 429 Z M220 405 L220 95 L480 95 L480 405 L220 405 Z M230 725 L310 725 L310 665 L390 665 L390 725 L470 725 L470 675 L440 645 L411 645 L411 615 L381 585 L320 585 L290 615 L290 645 L260 645 L230 675 L230 725 Z " />
<glyph glyph-name="Ohungarumlaut" unicode="&#x150;" horiz-adv-x="700" d="M125 106 L125 594 L160 629 L195 629 L195 665 L231 700 L468 700 L504 665 L504 629 L539 629 L575 594 L575 106 L539 71 L504 71 L504 36 L468 0 L231 0 L195 36 L195 71 L160 71 L125 106 Z M480 95 L480 605 L220 605 L220 95 L480 95 Z M399 915 L494 915 L459 785 L364 785 L399 915 Z M241 915 L336 915 L301 785 L206 785 L241 915 Z " />
<glyph glyph-name="ohungarumlaut" unicode="&#x151;" horiz-adv-x="700" d="M160 429 L195 429 L195 465 L231 500 L468 500 L504 465 L504 429 L539 429 L575 394 L575 106 L539 71 L504 71 L504 36 L468 0 L231 0 L195 36 L195 71 L160 71 L125 106 L125 394 L160 429 Z M220 405 L220 95 L480 95 L480 405 L220 405 Z M399 715 L494 715 L459 585 L364 585 L399 715 Z M241 715 L336 715 L301 585 L206 585 L241 715 Z " />
<glyph glyph-name="scaron" unicode="&#x161;" horiz-adv-x="700" d="M125 166 L220 166 L220 95 L480 95 L480 203 L231 203 L195 238 L195 273 L160 273 L125 309 L125 394 L160 429 L195 429 L195 465 L231 500 L468 500 L504 465 L504 429 L575 429 L575 334 L480 334 L480 405 L220 405 L220 298 L468 298 L504 262 L504 227 L539 227 L575 191 L575 106 L539 71 L504 71 L504 36 L468 0 L231 0 L195 36 L195 71 L125 71 L125 166 Z M209 715 L304 715 L350 630 L396 715 L491 715 L421 585 L279 585 L209 715 Z " />
<glyph glyph-name="Scaron" unicode="&#x160;" horiz-adv-x="700" d="M125 210 L220 210 L220 95 L480 95 L480 317 L231 317 L195 352 L195 387 L160 387 L125 423 L125 594 L160 629 L195 629 L195 665 L231 700 L468 700 L504 665 L504 629 L575 629 L575 490 L480 490 L480 605 L220 605 L220 412 L468 412 L504 376 L504 341 L539 341 L575 305 L575 106 L539 71 L504 71 L504 36 L468 0 L231 0 L195 36 L195 71 L125 71 L125 210 Z M209 915 L304 915 L350 830 L396 915 L491 915 L421 785 L279 785 L209 915 Z " />
<glyph glyph-name="scircumflex" unicode="&#x15d;" horiz-adv-x="700" d="M125 166 L220 166 L220 95 L480 95 L480 203 L231 203 L195 238 L195 273 L160 273 L125 309 L125 394 L160 429 L195 429 L195 465 L231 500 L468 500 L504 465 L504 429 L575 429 L575 334 L480 334 L480 405 L220 405 L220 298 L468 298 L504 262 L504 227 L539 227 L575 191 L575 106 L539 71 L504 71 L504 36 L468 0 L231 0 L195 36 L195 71 L125 71 L125 166 Z M279 715 L421 715 L491 585 L396 585 L350 671 L304 585 L209 585 L279 715 Z " />
<glyph glyph-name="Scircumflex" unicode="&#x15c;" horiz-adv-x="700" d="M125 210 L220 210 L220 95 L480 95 L480 317 L231 317 L195 352 L195 387 L160 387 L125 423 L125 594 L160 629 L195 629 L195 665 L231 700 L468 700 L504 665 L504 629 L575 629 L575 490 L480 490 L480 605 L220 605 L220 412 L468 412 L504 376 L504 341 L539 341 L575 305 L575 106 L539 71 L504 71 L504 36 L468 0 L231 0 L195 36 L195 71 L125 71 L125 210 Z M279 915 L421 915 L491 785 L396 785 L350 871 L304 785 L209 785 L279 915 Z " />
<glyph glyph-name="sacute" unicode="&#x15b;" horiz-adv-x="700" d="M125 309 L125 394 L160 429 L195 429 L195 465 L231 500 L468 500 L504 465 L504 429 L575 429 L575 334 L480 334 L480 405 L220 405 L220 298 L468 298 L504 262 L504 227 L539 227 L575 191 L575 106 L539 71 L504 71 L504 36 L468 0 L231 0 L195 36 L195 71 L125 71 L125 166 L220 166 L220 95 L480 95 L480 203 L231 203 L195 238 L195 273 L160 273 L125 309 Z M302 585 L343 742 L438 742 L397 585 L302 585 Z " />
<glyph glyph-name="Sacute" unicode="&#x15a;" horiz-adv-x="700" d="M125 423 L125 594 L160 629 L195 629 L195 665 L231 700 L468 700 L504 665 L504 629 L575 629 L575 490 L480 490 L480 605 L220 605 L220 412 L468 412 L504 376 L504 341 L539 341 L575 305 L575 106 L539 71 L504 71 L504 36 L468 0 L231 0 L195 36 L195 71 L125 71 L125 210 L220 210 L220 95 L480 95 L480 317 L231 317 L195 352 L195 387 L160 387 L125 423 Z M302 785 L343 942 L438 942 L397 785 L302 785 Z " />
<glyph glyph-name="rcaron" unicode="&#x159;" horiz-adv-x="700" d="M140 0 L140 429 L210 429 L210 464 L246 500 L454 500 L490 464 L490 429 L560 429 L560 334 L465 334 L465 405 L235 405 L235 0 L140 0 Z M209 715 L304 715 L350 630 L396 715 L491 715 L421 585 L279 585 L209 715 Z " />
<glyph glyph-name="Rcaron" unicode="&#x158;" horiz-adv-x="700" d="M125 700 L468 700 L504 665 L504 629 L539 629 L575 594 L575 423 L539 387 L504 387 L504 341 L539 341 L575 305 L575 0 L480 0 L480 317 L220 317 L220 0 L125 0 L125 700 Z M220 605 L220 412 L480 412 L480 605 L220 605 Z M209 915 L304 915 L350 830 L396 915 L491 915 L421 785 L279 785 L209 915 Z " />
<glyph glyph-name="uni0157" unicode="&#x157;" horiz-adv-x="700" d="M210 429 L210 464 L246 500 L454 500 L490 464 L490 429 L560 429 L560 334 L465 334 L465 405 L235 405 L235 0 L140 0 L140 429 L210 429 Z M360 -200 L265 -200 L300 -70 L395 -70 L360 -200 Z " />
<glyph glyph-name="uni0156" unicode="&#x156;" horiz-adv-x="700" d="M468 700 L504 665 L504 629 L539 629 L575 594 L575 423 L539 387 L504 387 L504 341 L539 341 L575 305 L575 0 L480 0 L480 317 L220 317 L220 0 L125 0 L125 700 L468 700 Z M220 412 L480 412 L480 605 L220 605 L220 412 Z M360 -200 L265 -200 L300 -70 L395 -70 L360 -200 Z " />
<glyph glyph-name="racute" unicode="&#x155;" horiz-adv-x="700" d="M210 429 L210 464 L246 500 L454 500 L490 464 L490 429 L560 429 L560 334 L465 334 L465 405 L235 405 L235 0 L140 0 L140 429 L210 429 Z M333 742 L428 742 L387 585 L292 585 L333 742 Z " />
<glyph glyph-name="Racute" unicode="&#x154;" horiz-adv-x="700" d="M468 700 L504 665 L504 629 L539 629 L575 594 L575 423 L539 387 L504 387 L504 341 L539 341 L575 305 L575 0 L480 0 L480 317 L220 317 L220 0 L125 0 L125 700 L468 700 Z M220 412 L480 412 L480 605 L220 605 L220 412 Z M272 785 L313 942 L408 942 L367 785 L272 785 Z " />
<glyph glyph-name="Tcaron" unicode="&#x164;" horiz-adv-x="700" d="M125 700 L575 700 L575 605 L397 605 L397 0 L302 0 L302 605 L125 605 L125 700 Z M209 915 L304 915 L350 830 L396 915 L491 915 L421 785 L279 785 L209 915 Z " />
<glyph glyph-name="Utilde" unicode="&#x168;" horiz-adv-x="700" d="M220 700 L220 95 L480 95 L480 700 L575 700 L575 106 L539 71 L504 71 L504 36 L468 0 L231 0 L195 36 L195 71 L160 71 L125 106 L125 700 L220 700 Z M231 886 L231 913 L259 941 L304 941 L332 913 L332 886 L387 886 L387 830 L450 830 L450 911 L525 911 L525 810 L469 810 L469 783 L441 755 L396 755 L368 783 L368 810 L313 810 L313 866 L250 866 L250 785 L175 785 L175 886 L231 886 Z " />
<glyph glyph-name="utilde" unicode="&#x169;" horiz-adv-x="700" d="M125 106 L125 500 L220 500 L220 95 L480 95 L480 500 L575 500 L575 71 L504 71 L504 36 L468 0 L231 0 L195 36 L195 71 L160 71 L125 106 Z M231 686 L231 713 L259 741 L304 741 L332 713 L332 686 L387 686 L387 630 L450 630 L450 711 L525 711 L525 610 L469 610 L469 583 L441 555 L396 555 L368 583 L368 610 L313 610 L313 666 L250 666 L250 585 L175 585 L175 686 L231 686 Z " />
<glyph glyph-name="Umacron" unicode="&#x16a;" horiz-adv-x="700" d="M220 700 L220 95 L480 95 L480 700 L575 700 L575 106 L539 71 L504 71 L504 36 L468 0 L231 0 L195 36 L195 71 L160 71 L125 106 L125 700 L220 700 Z M224 880 L476 880 L476 785 L224 785 L224 880 Z " />
<glyph glyph-name="umacron" unicode="&#x16b;" horiz-adv-x="700" d="M125 106 L125 500 L220 500 L220 95 L480 95 L480 500 L575 500 L575 71 L504 71 L504 36 L468 0 L231 0 L195 36 L195 71 L160 71 L125 106 Z M224 680 L476 680 L476 585 L224 585 L224 680 Z " />
<glyph glyph-name="Ubreve" unicode="&#x16c;" horiz-adv-x="700" d="M220 700 L220 95 L480 95 L480 700 L575 700 L575 106 L539 71 L504 71 L504 36 L468 0 L231 0 L195 36 L195 71 L160 71 L125 106 L125 700 L220 700 Z M230 925 L310 925 L310 865 L390 865 L390 925 L470 925 L470 875 L440 845 L411 845 L411 815 L381 785 L320 785 L290 815 L290 845 L260 845 L230 875 L230 925 Z " />
<glyph glyph-name="ubreve" unicode="&#x16d;" horiz-adv-x="700" d="M125 106 L125 500 L220 500 L220 95 L480 95 L480 500 L575 500 L575 71 L504 71 L504 36 L468 0 L231 0 L195 36 L195 71 L160 71 L125 106 Z M230 725 L310 725 L310 665 L390 665 L390 725 L470 725 L470 675 L440 645 L411 645 L411 615 L381 585 L320 585 L290 615 L290 645 L260 645 L230 675 L230 725 Z " />
<glyph glyph-name="Uhungarumlaut" unicode="&#x170;" horiz-adv-x="700" d="M220 700 L220 95 L480 95 L480 700 L575 700 L575 106 L539 71 L504 71 L504 36 L468 0 L231 0 L195 36 L195 71 L160 71 L125 106 L125 700 L220 700 Z M399 915 L494 915 L459 785 L364 785 L399 915 Z M241 915 L336 915 L301 785 L206 785 L241 915 Z " />
<glyph glyph-name="uhungarumlaut" unicode="&#x171;" horiz-adv-x="700" d="M125 106 L125 500 L220 500 L220 95 L480 95 L480 500 L575 500 L575 71 L504 71 L504 36 L468 0 L231 0 L195 36 L195 71 L160 71 L125 106 Z M399 715 L494 715 L459 585 L364 585 L399 715 Z M241 715 L336 715 L301 585 L206 585 L241 715 Z " />
<glyph glyph-name="zcaron" unicode="&#x17e;" horiz-adv-x="700" d="M125 85 L267 227 L302 227 L302 298 L373 298 L373 348 L430 405 L125 405 L125 500 L575 500 L575 416 L432 273 L397 273 L397 203 L326 203 L326 152 L269 95 L575 95 L575 0 L125 0 L125 85 Z M209 715 L304 715 L350 630 L396 715 L491 715 L421 585 L279 585 L209 715 Z " />
<glyph glyph-name="Zcaron" unicode="&#x17d;" horiz-adv-x="700" d="M125 0 L125 215 L480 570 L480 605 L125 605 L125 700 L575 700 L575 531 L220 176 L220 95 L575 95 L575 0 L125 0 Z M209 915 L304 915 L350 830 L396 915 L491 915 L421 785 L279 785 L209 915 Z " />
<glyph glyph-name="zdotaccent" unicode="&#x17c;" horiz-adv-x="700" d="M125 85 L267 227 L302 227 L302 298 L373 298 L373 348 L430 405 L125 405 L125 500 L575 500 L575 416 L432 273 L397 273 L397 203 L326 203 L326 152 L269 95 L575 95 L575 0 L125 0 L125 85 Z M302 680 L397 680 L397 585 L302 585 L302 680 Z " />
<glyph glyph-name="Zdotaccent" unicode="&#x17b;" horiz-adv-x="700" d="M125 0 L125 215 L480 570 L480 605 L125 605 L125 700 L575 700 L575 531 L220 176 L220 95 L575 95 L575 0 L125 0 Z M302 880 L397 880 L397 785 L302 785 L302 880 Z " />
<glyph glyph-name="zacute" unicode="&#x17a;" horiz-adv-x="700" d="M575 500 L575 416 L432 273 L397 273 L397 203 L326 203 L326 152 L269 95 L575 95 L575 0 L125 0 L125 85 L267 227 L302 227 L302 298 L373 298 L373 348 L430 405 L125 405 L125 500 L575 500 Z M343 742 L438 742 L397 585 L302 585 L343 742 Z " />
<glyph glyph-name="Zacute" unicode="&#x179;" horiz-adv-x="700" d="M125 605 L125 700 L575 700 L575 531 L220 176 L220 95 L575 95 L575 0 L125 0 L125 215 L480 570 L480 605 L125 605 Z M343 942 L438 942 L397 785 L302 785 L343 942 Z " />
<glyph glyph-name="Ydieresis" unicode="&#x178;" horiz-adv-x="700" d="M125 700 L220 700 L220 569 L326 462 L326 412 L373 412 L373 462 L480 569 L480 700 L575 700 L575 530 L432 387 L397 387 L397 0 L302 0 L302 387 L267 387 L125 530 L125 700 Z M476 880 L476 785 L381 785 L381 880 L476 880 Z M224 880 L319 880 L319 785 L224 785 L224 880 Z " />
<glyph glyph-name="ycircumflex" unicode="&#x177;" horiz-adv-x="700" d="M125 -129 L125 -34 L220 -34 L220 -105 L480 -105 L480 0 L231 0 L195 36 L195 71 L160 71 L125 106 L125 500 L220 500 L220 95 L480 95 L480 500 L575 500 L575 -129 L504 -129 L504 -164 L468 -200 L231 -200 L195 -164 L195 -129 L125 -129 Z M279 715 L421 715 L491 585 L396 585 L350 671 L304 585 L209 585 L279 715 Z " />
<glyph glyph-name="Ycircumflex" unicode="&#x176;" horiz-adv-x="700" d="M125 700 L220 700 L220 569 L326 462 L326 412 L373 412 L373 462 L480 569 L480 700 L575 700 L575 530 L432 387 L397 387 L397 0 L302 0 L302 387 L267 387 L125 530 L125 700 Z M279 915 L421 915 L491 785 L396 785 L350 871 L304 785 L209 785 L279 915 Z " />
<glyph glyph-name="wcircumflex" unicode="&#x175;" horiz-adv-x="700" d="M75 500 L170 500 L170 184 L208 146 L208 95 L227 95 L252 119 L302 119 L302 298 L397 298 L397 119 L448 119 L472 95 L491 95 L491 146 L530 184 L530 500 L625 500 L625 145 L551 71 L516 71 L516 36 L480 0 L432 0 L373 60 L373 95 L326 95 L326 60 L267 0 L219 0 L183 36 L183 71 L148 71 L75 145 L75 500 Z M279 715 L421 715 L491 585 L396 585 L350 671 L304 585 L209 585 L279 715 Z " />
<glyph glyph-name="Wcircumflex" unicode="&#x174;" horiz-adv-x="700" d="M100 0 L100 700 L195 700 L195 232 L252 289 L302 289 L302 412 L397 412 L397 289 L448 289 L505 232 L505 700 L600 700 L600 0 L505 0 L505 97 L373 229 L373 264 L326 264 L326 229 L195 97 L195 0 L100 0 Z M279 915 L421 915 L491 785 L396 785 L350 871 L304 785 L209 785 L279 915 Z " />
<glyph glyph-name="Wgrave" unicode="&#x1e80;" horiz-adv-x="700" d="M100 0 L100 700 L195 700 L195 232 L252 289 L302 289 L302 412 L397 412 L397 289 L448 289 L505 232 L505 700 L600 700 L600 0 L505 0 L505 97 L373 229 L373 264 L326 264 L326 229 L195 97 L195 0 L100 0 Z M282 942 L377 942 L418 785 L324 785 L282 942 Z " />
<glyph glyph-name="wgrave" unicode="&#x1e81;" horiz-adv-x="700" d="M75 500 L170 500 L170 184 L208 146 L208 95 L227 95 L252 119 L302 119 L302 298 L397 298 L397 119 L448 119 L472 95 L491 95 L491 146 L530 184 L530 500 L625 500 L625 145 L551 71 L516 71 L516 36 L480 0 L432 0 L373 60 L373 95 L326 95 L326 60 L267 0 L219 0 L183 36 L183 71 L148 71 L75 145 L75 500 Z M281 742 L376 742 L418 585 L323 585 L281 742 Z " />
<glyph glyph-name="Wacute" unicode="&#x1e82;" horiz-adv-x="700" d="M100 0 L100 700 L195 700 L195 232 L252 289 L302 289 L302 412 L397 412 L397 289 L448 289 L505 232 L505 700 L600 700 L600 0 L505 0 L505 97 L373 229 L373 264 L326 264 L326 229 L195 97 L195 0 L100 0 Z M418 942 L377 785 L282 785 L323 942 L418 942 Z " />
<glyph glyph-name="wacute" unicode="&#x1e83;" horiz-adv-x="700" d="M75 500 L170 500 L170 184 L208 146 L208 95 L227 95 L252 119 L302 119 L302 298 L397 298 L397 119 L448 119 L472 95 L491 95 L491 146 L530 184 L530 500 L625 500 L625 145 L551 71 L516 71 L516 36 L480 0 L432 0 L373 60 L373 95 L326 95 L326 60 L267 0 L219 0 L183 36 L183 71 L148 71 L75 145 L75 500 Z M418 742 L376 585 L281 585 L323 742 L418 742 Z " />
<glyph glyph-name="Wdieresis" unicode="&#x1e84;" horiz-adv-x="700" d="M100 0 L100 700 L195 700 L195 232 L252 289 L302 289 L302 412 L397 412 L397 289 L448 289 L505 232 L505 700 L600 700 L600 0 L505 0 L505 97 L373 229 L373 264 L326 264 L326 229 L195 97 L195 0 L100 0 Z M476 880 L476 785 L381 785 L381 880 L476 880 Z M224 880 L319 880 L319 785 L224 785 L224 880 Z " />
<glyph glyph-name="wdieresis" unicode="&#x1e85;" horiz-adv-x="700" d="M75 500 L170 500 L170 184 L208 146 L208 95 L227 95 L252 119 L302 119 L302 298 L397 298 L397 119 L448 119 L472 95 L491 95 L491 146 L530 184 L530 500 L625 500 L625 145 L551 71 L516 71 L516 36 L480 0 L432 0 L373 60 L373 95 L326 95 L326 60 L267 0 L219 0 L183 36 L183 71 L148 71 L75 145 L75 500 Z M476 680 L476 585 L381 585 L381 680 L476 680 Z M224 680 L319 680 L319 585 L224 585 L224 680 Z " />
<glyph glyph-name="uni0123" unicode="&#x123;" horiz-adv-x="700" d="M150 191 L185 191 L185 237 L150 237 L114 273 L114 394 L150 430 L185 430 L185 465 L220 500 L408 500 L443 465 L443 430 L490 430 L490 500 L585 500 L585 405 L514 405 L514 273 L478 237 L443 237 L443 202 L408 166 L209 166 L209 95 L458 95 L493 60 L493 25 L528 25 L564 -11 L564 -94 L528 -129 L493 -129 L493 -164 L458 -200 L220 -200 L185 -164 L185 -129 L150 -129 L114 -94 L114 -11 L150 25 L185 25 L185 71 L150 71 L114 106 L114 155 L150 191 Z M419 261 L419 405 L209 405 L209 261 L419 261 Z M209 -105 L469 -105 L469 0 L209 0 L209 -105 Z M291 585 L333 742 L428 742 L386 585 L291 585 Z " />
</font>
</svg>
